<svg width="30" height="30" fill="none" xmlns="http://www.w3.org/2000/svg"><path d="M15 0c-4.077 0-4.585.02-6.18.087-1.603.079-2.687.327-3.643.699-1 .377-1.907.969-2.656 1.733A7.272 7.272 0 00.788 5.175c-.372.956-.62 2.04-.699 3.642-.072 1.597-.087 2.104-.087 6.181s.02 4.585.087 6.181c.079 1.598.327 2.686.699 3.642a7.346 7.346 0 001.733 2.656 7.27 7.27 0 002.656 1.734c.956.366 2.045.62 3.642.698 1.597.072 2.104.087 6.181.087s4.585-.02 6.181-.087c1.598-.079 2.686-.333 3.642-.698a7.362 7.362 0 002.656-1.734 7.234 7.234 0 001.734-2.656c.366-.956.62-2.044.698-3.642.072-1.596.087-2.104.087-6.18 0-4.078-.02-4.586-.087-6.182-.079-1.597-.333-2.691-.698-3.642a7.37 7.37 0 00-1.734-2.656A7.233 7.233 0 0024.823.786c-.956-.372-2.044-.62-3.642-.699C19.584.015 19.077 0 15.001 0zm0 2.7c4.004 0 4.482.02 6.065.087 1.46.069 2.255.312 2.782.519.653.24 1.243.624 1.729 1.122.497.483.88 1.073 1.117 1.724.207.528.45 1.323.519 2.782.067 1.583.087 2.062.087 6.065s-.02 4.482-.093 6.065c-.078 1.46-.322 2.254-.527 2.782a4.877 4.877 0 01-1.124 1.729 4.732 4.732 0 01-1.73 1.117c-.52.207-1.327.45-2.792.519-1.591.067-2.06.087-6.074.087-4.014 0-4.482-.02-6.075-.093-1.46-.078-2.265-.322-2.793-.527-.712-.285-1.2-.601-1.724-1.125-.528-.527-.863-1.03-1.122-1.728-.21-.522-.45-1.328-.528-2.793-.053-1.572-.079-2.06-.079-6.055 0-3.994.026-4.483.079-6.075.078-1.465.318-2.27.528-2.792.259-.714.595-1.201 1.122-1.73.522-.521 1.012-.859 1.724-1.123.528-.205 1.313-.45 2.779-.522 1.59-.057 2.06-.078 6.068-.078L15 2.7zm0 4.6a7.697 7.697 0 00-7.114 10.647 7.697 7.697 0 0010.061 4.167 7.697 7.697 0 004.167-10.061A7.696 7.696 0 0015 7.3zM15 20c-2.764 0-5-2.236-5-5s2.236-5 5-5 5 2.236 5 5-2.236 5-5 5zm9.81-13.007a1.803 1.803 0 01-3.075 1.274 1.801 1.801 0 010-2.544 1.8 1.8 0 011.272-.527c.991 0 1.803.806 1.803 1.797z" fill="#020202"/></svg>