<svg width="181" height="27" fill="none" xmlns="http://www.w3.org/2000/svg"><g opacity=".95" fill="#020202"><path d="M96.596 22.266c-.39 0-.8-.086-1.082-.301a1.224 1.224 0 01-.41-.949V10.734h2.184v9.183c0 .13-.021.345.152.495.065.044.194.13.54.13h6.36v1.724h-7.744z"/><path d="M107.887 11.899c.411-.97.866-1.293 1.904-1.293.995 0 1.492.323 1.903 1.293l4.37 10.368h-2.293l-1.19-2.91h-5.58l-1.169 2.91h-2.292l4.347-10.368zm-.324 5.906h4.456l-1.882-4.7c-.065-.172-.173-.473-.324-.473-.152 0-.26.323-.325.474l-1.925 4.699zm16.287-7.071c.627 0 1.493.065 2.098.69.649.668.736 1.725.736 2.479 0 .625-.044 1.272-.541 1.875-.325.388-.671.56-1.082.604v.064c.541.043.995.302 1.277.604.54.604.54 1.423.54 2.07 0 .754 0 1.68-.67 2.413-.671.733-1.406.733-2.12.733h-5.538c-.584 0-1.103.065-1.579-.452-.108-.13-.389-.518-.389-1.164v-8.256c0-.431.108-.884.368-1.185.346-.41.865-.475 1.233-.475h5.667zm-5.105 4.829h4.24c.432 0 .887 0 1.19-.41.086-.108.237-.388.237-1.164 0-.323-.021-.884-.389-1.229-.324-.301-.714-.301-1.081-.301h-3.57c-.173 0-.367-.022-.497.13-.13.15-.152.387-.152.516l.022 2.458zm0 4.117c0 .388.043.582.13.668.173.194.541.172.714.172h3.439c.346 0 .952-.021 1.276-.41.238-.301.303-.797.303-1.163 0-.323-.043-.862-.238-1.164-.13-.173-.454-.474-1.168-.474h-4.434l-.022 2.37zm9.41.862h6.425c1.038 0 1.081-.862 1.081-1.25 0-.453-.108-.992-1.125-1.294l-4.564-1.444c-.173-.043-.908-.302-1.362-.862-.52-.625-.606-1.53-.606-2.177 0-.69.086-1.53.735-2.134.606-.56 1.341-.647 1.904-.647h6.662v1.725H131.4c-.303 0-.649.021-.909.258-.281.26-.302.669-.302.884 0 .517.151 1.013 1.081 1.293l4.24 1.337c.779.237 1.298.496 1.644.819.692.668.757 1.681.757 2.22 0 .733-.108 1.53-.584 2.134-.584.733-1.298.82-2.077.82h-7.095v-1.682zm14.125-8.643c.411-.97.866-1.293 1.904-1.293.995 0 1.493.323 1.903 1.293l4.37 10.368h-2.293l-1.19-2.91h-5.58l-1.169 2.91h-2.292l4.347-10.368zm-.324 5.906h4.456l-1.882-4.7c-.065-.172-.173-.473-.324-.473-.152 0-.26.323-.325.474l-1.925 4.699zm10.491 4.461c-.39 0-.801-.086-1.082-.301a1.224 1.224 0 01-.411-.949V10.734h2.185v9.183c0 .13-.022.345.151.495.065.044.195.13.541.13h6.36v1.724h-7.744zm10.166 0c-.497 0-.951 0-1.319-.366-.389-.388-.433-.905-.433-1.358v-8.17c0-.452.152-.926.39-1.207.389-.409.951-.452 1.384-.452h7.419v1.724h-6.251c-.195 0-.432.022-.606.173-.173.172-.173.388-.173.56v2.328h6.879v1.725h-6.857v2.694c0 .172.065.366.173.452.13.13.389.151.736.151h6.186v1.725h-7.528v.021zm8.674-1.724h6.403c1.038 0 1.082-.862 1.082-1.25 0-.453-.109-.992-1.125-1.294l-4.564-1.444c-.173-.043-.909-.302-1.363-.862-.519-.625-.606-1.53-.606-2.177 0-.69.087-1.53.736-2.134.605-.56 1.341-.647 1.903-.647h6.662v1.725h-5.926c-.303 0-.649.021-.909.258-.281.26-.303.669-.303.884 0 .517.152 1.013 1.082 1.293l4.24 1.337c.778.237 1.297.496 1.643.819.693.668.758 1.681.758 2.22 0 .733-.109 1.53-.585 2.134-.584.733-1.297.82-2.076.82h-7.117v-1.682h.065zm-80.683-10.54L86.797.861c-.13-.302-.238-.517-.368-.625A.867.867 0 0085.802 0a.867.867 0 00-.627.237c-.13.108-.238.323-.368.625L81 10.023v10.562c0 .56.108.948.346 1.207.238.259.584.366 1.038.366h6.857c.455 0 .8-.129 1.039-.366.238-.259.346-.647.346-1.207L90.604 10zm-.93 0v1.638a1.344 1.344 0 00-.52-.173 1.194 1.194 0 00-.864.216l-1.774-1.854c.065-.13.108-.259.13-.388a1.245 1.245 0 00-1.082-1.401 1.247 1.247 0 00-1.406 1.078c-.043.41.108.797.39 1.077l-.8 1.66c-.044 0-.087-.021-.13-.021a1.33 1.33 0 00-.585.064l-1.016-2.09 3.482-8.773c.087-.216.195-.324.303-.324.108 0 .195.108.303.324L89.674 10z"/></g><path opacity=".95" d="M5.653 12.901c-1.098 0-1.966.367-2.604 1.101-.634.73-.95 1.73-.95 3 0 1.309.305 2.32.916 3.036.615.711 1.49 1.067 2.625 1.067.697 0 1.492-.126 2.385-.377v1.02c-.692.259-1.547.389-2.563.389-1.472 0-2.61-.447-3.411-1.34-.798-.893-1.197-2.163-1.197-3.808 0-1.03.192-1.932.575-2.707a4.174 4.174 0 011.668-1.79c.729-.42 1.586-.63 2.57-.63 1.048 0 1.964.192 2.748.575l-.492.998c-.757-.356-1.513-.534-2.27-.534zm10.89 11.69h-1.1V22h-5.237v2.59H9.112v-3.567H9.7c.61-.83 1.09-1.803 1.436-2.92a12.53 12.53 0 00.54-3.595h3.794v6.515h1.073v3.568zm-2.167-3.569v-5.619h-1.682a12.453 12.453 0 01-.588 3.077c-.328 1.034-.738 1.882-1.23 2.543h3.5zm6.836 1.115c-1.107 0-1.982-.338-2.625-1.012-.638-.674-.957-1.611-.957-2.81 0-1.207.296-2.167.889-2.878.597-.71 1.396-1.066 2.399-1.066.939 0 1.682.31 2.229.93.546.615.82 1.429.82 2.44v.718h-5.161c.022.88.243 1.547.663 2.003.424.456 1.018.683 1.784.683.807 0 1.604-.168 2.392-.505v1.011a5.805 5.805 0 01-1.141.37 6.162 6.162 0 01-1.292.116zm-.308-6.816c-.601 0-1.082.196-1.442.588-.356.392-.565.934-.629 1.627h3.917c0-.715-.16-1.262-.479-1.64-.319-.383-.774-.575-1.367-.575zM31.494 22h-1.15v-6.521h-2.248c-.123 1.622-.294 2.91-.513 3.862-.219.952-.504 1.65-.854 2.092-.347.442-.789.663-1.327.663-.246 0-.442-.028-.588-.082v-.841c.1.027.215.04.342.04.524 0 .941-.553 1.251-1.66.31-1.108.545-2.79.704-5.045h4.382V22zm7.02 0l-.226-1.066h-.055c-.373.469-.747.788-1.12.957-.37.164-.832.246-1.388.246-.743 0-1.327-.192-1.75-.575-.42-.382-.63-.927-.63-1.633 0-1.513 1.21-2.306 3.63-2.38l1.272-.04v-.465c0-.588-.127-1.02-.383-1.299-.25-.282-.654-.424-1.21-.424-.624 0-1.33.192-2.119.575l-.348-.869c.369-.2.772-.357 1.21-.471a5.29 5.29 0 011.326-.171c.893 0 1.554.198 1.982.595.433.396.65 1.032.65 1.907V22h-.841zm-2.564-.8c.707 0 1.26-.194 1.661-.58.406-.388.609-.93.609-1.628v-.677l-1.135.048c-.902.032-1.554.174-1.955.424-.397.246-.595.631-.595 1.155 0 .41.123.723.37.937.25.214.599.321 1.045.321zm6.884-6.692v3.137h4.197v-3.137h1.135V22h-1.135v-3.377h-4.197V22h-1.135v-7.492h1.135zm14.205 3.74c0 1.22-.308 2.175-.923 2.863-.615.684-1.465 1.026-2.55 1.026-.67 0-1.264-.157-1.784-.472a3.113 3.113 0 01-1.203-1.354c-.282-.587-.424-1.276-.424-2.064 0-1.221.306-2.171.916-2.85.611-.684 1.459-1.026 2.543-1.026 1.048 0 1.88.349 2.495 1.046.62.697.93 1.64.93 2.83zm-5.708 0c0 .956.191 1.685.574 2.187.383.5.946.752 1.689.752.743 0 1.305-.249 1.688-.746.388-.5.581-1.232.581-2.194 0-.952-.193-1.675-.58-2.167-.384-.497-.951-.745-1.703-.745-.743 0-1.303.244-1.682.731-.378.488-.567 1.215-.567 2.181zm17.418-1.86c0 .487-.141.859-.424 1.114-.278.25-.67.42-1.176.506v.061c.638.087 1.103.274 1.395.56.296.288.444.684.444 1.19 0 .698-.257 1.235-.772 1.614-.51.378-1.258.567-2.242.567h-3.302v-7.492h3.288c1.86 0 2.789.626 2.789 1.88zm-.895 3.356c0-.405-.155-.7-.465-.882-.306-.186-.814-.28-1.525-.28h-2.057v2.468h2.085c1.308 0 1.962-.435 1.962-1.306zm-.212-3.247c0-.364-.142-.622-.424-.772-.278-.155-.702-.233-1.272-.233h-2.14v2.113h1.922c.701 0 1.196-.087 1.483-.26.287-.173.43-.456.43-.848z" fill="#020202"/></svg>