<svg width="179" height="90" fill="none" xmlns="http://www.w3.org/2000/svg"><path d="M83.92 42.693a15.73 15.73 0 017.816 13.605v11.769a15.74 15.74 0 01-7.873 13.576l-10.204 5.865a15.769 15.769 0 01-15.694-.029L47.79 81.574a19.363 19.363 0 01-2.354-1.698c-.452.333-.92.642-1.404.927l-10.21 5.865a15.757 15.757 0 01-15.689 0L7.935 80.734a15.752 15.752 0 01-7.821-13.61V55.36A15.734 15.734 0 018.01 41.783l10.204-5.864a16.74 16.74 0 012.503-1.111c0-.334-.04-.668-.04-1.007V22.03a15.7 15.7 0 017.896-13.57l10.198-5.87a15.74 15.74 0 0115.695.028L64.629 8.53a15.706 15.706 0 017.821 13.6v11.769a19.67 19.67 0 01-.16 2.158c.496.219.98.465 1.45.736l10.18 5.9zm5.312 13.599a13.237 13.237 0 00-6.566-11.436l-10.181-5.899a12.34 12.34 0 00-.771-.408 13.235 13.235 0 00-12.42.38L49.09 44.793a12.5 12.5 0 00-.96.616 16.033 16.033 0 013.343 6.55c.182.756.307 1.526.374 2.301v.19c0 .323.04.645.04.973v11.763a15.729 15.729 0 01-4.454 10.935l-.087.08c.536.434 1.1.832 1.687 1.192l10.18 5.905a13.237 13.237 0 0013.186 0l10.21-5.865a13.236 13.236 0 006.612-11.406l.011-11.735zM69.958 22.129a13.237 13.237 0 00-6.572-11.435L53.211 4.812a13.237 13.237 0 00-13.19 0l-10.199 5.813a13.237 13.237 0 00-6.63 11.412v12.259c.027.835.137 1.666.328 2.48a13.183 13.183 0 006.233 8.46l10.18 5.905c.248.144.507.282.766.414a16.195 16.195 0 013.724-6.261v-.035a15.39 15.39 0 011.841-1.611c.488-.362.995-.696 1.52-1.002l10.198-5.858a15.735 15.735 0 0111.81-1.571c.04-.409.08-.916.086-1.301l.08-11.787zM49.401 55.457v-.31c-.952.153-1.914.23-2.878.23-1.336.01-2.668-.15-3.965-.472h-.034a14.961 14.961 0 01-2.395-.846 17.82 17.82 0 01-1.45-.737L28.5 47.4a15.68 15.68 0 01-7.379-9.91l-.034-.15c-.558.212-1.1.462-1.623.748L9.26 43.948a13.237 13.237 0 00-6.62 11.405v11.77a13.237 13.237 0 006.578 11.435l10.175 5.904a13.19 13.19 0 0013.185 0l10.18-5.835c.329-.185.645-.397.962-.61a13.237 13.237 0 005.652-10.797l.028-11.764zm-.368-2.917a13.916 13.916 0 00-2.82-5.502 14.088 14.088 0 00-3.2 5.398 14.47 14.47 0 006.02.098v.006z" fill="#fff"/><path d="M82.666 44.857a13.237 13.237 0 016.566 11.435v11.77a13.237 13.237 0 01-6.612 11.406l-10.21 5.865a13.236 13.236 0 01-13.185 0l-10.18-5.905a15.877 15.877 0 01-1.687-1.191l.086-.081A15.729 15.729 0 0051.9 67.22V55.458c0-.328 0-.65-.04-.973v-.178a15.57 15.57 0 00-.375-2.302 16.033 16.033 0 00-3.343-6.55c.305-.218.627-.42.96-.616L59.3 38.975a13.24 13.24 0 0110.077-1.272c.809.219 1.593.517 2.342.892.265.127.518.265.772.409l10.175 5.853z" fill="#020202"/><path d="M44.429 45.294a16.197 16.197 0 00-3.724 6.262 16.25 16.25 0 01-.765-.415l-10.187-5.905a13.186 13.186 0 01-6.227-8.46 12.663 12.663 0 01-.334-2.48V22.037a13.237 13.237 0 016.63-11.412L40.02 4.766a13.237 13.237 0 0113.191 0l10.175 5.905a13.237 13.237 0 016.572 11.436V33.87c0 .386-.046.892-.086 1.3a15.734 15.734 0 00-11.81 1.572l-10.215 5.882c-.524.305-1.032.64-1.52 1.001a15.382 15.382 0 00-1.84 1.611v.035l-.058.023z" fill="#F9B70F"/><path d="M49.39 55.141v12.08a13.237 13.237 0 01-3.753 9.174 13.91 13.91 0 01-1.905 1.623c-.316.213-.633.425-.961.61l-10.215 5.864a13.19 13.19 0 01-13.185 0L9.196 78.564A13.237 13.237 0 012.617 67.13V55.36A13.237 13.237 0 019.26 43.948l10.204-5.858a12.94 12.94 0 011.623-.749l.034.15a15.682 15.682 0 007.378 9.91l10.175 5.905c.478.276.967.512 1.45.737.773.35 1.574.632 2.395.846h.034a15.96 15.96 0 003.966.472c.961.004 1.922-.07 2.871-.219zM99.931 12.68h-4.069v14.606h-2.06V12.68h-4.069v-1.881h10.198v1.882zm8.098 12.224a5.184 5.184 0 01-1.934 1.974 5.242 5.242 0 01-2.722.76 4.983 4.983 0 01-3.758-1.474 5.295 5.295 0 01-1.433-3.862 5.432 5.432 0 011.346-3.74 4.65 4.65 0 013.661-1.578 4.508 4.508 0 013.597 1.537 5.55 5.55 0 011.26 3.758v.328h-7.89c-.037.89.279 1.76.88 2.417a2.972 2.972 0 002.262.927 3.453 3.453 0 003.171-1.9l1.56.853zm-1.899-3.736a3.022 3.022 0 00-.962-1.824 2.772 2.772 0 00-1.933-.72 3.062 3.062 0 00-1.98.691c-.57.462-.96 1.11-1.099 1.83l5.974.023zm11.113 5.807c-.87.455-1.84.683-2.82.662a5.131 5.131 0 01-3.787-1.53 5.456 5.456 0 010-7.563 4.956 4.956 0 013.7-1.548 5.681 5.681 0 012.924.662v2.089a3.97 3.97 0 00-2.878-1.002 3.158 3.158 0 00-2.4 1.03 3.568 3.568 0 00-.995 2.521c-.022.924.322 1.82.955 2.492a3.04 3.04 0 002.302 1.03 4.99 4.99 0 002.987-.95l.012 2.107zm10.624.311h-1.94v-5.928c0-1.78-.558-2.67-1.675-2.67a2.802 2.802 0 00-2.043.811 3.57 3.57 0 00-.995 2.693v5.094h-1.911V9.992h1.922v8.633a3.543 3.543 0 013.108-1.687c2.363 0 3.545 1.37 3.545 4.11l-.011 6.238zm11.107 0h-1.945v-5.928a3.323 3.323 0 00-.478-2.014 1.96 1.96 0 00-1.652-.656 2.297 2.297 0 00-1.974.811 4.604 4.604 0 00-.604 2.694v5.093h-1.922v-9.997h1.922v1.382a3.544 3.544 0 013.108-1.687c2.367 0 3.549 1.37 3.545 4.11v6.192zm12.506-4.984a5.12 5.12 0 01-1.571 3.804 5.45 5.45 0 01-7.62 0 5.326 5.326 0 013.81-9.099 5.178 5.178 0 013.816 1.549 5.102 5.102 0 011.565 3.746zm-1.945 0a3.374 3.374 0 00-1.007-2.463 3.418 3.418 0 00-4.869 0 3.553 3.553 0 000 4.944 3.414 3.414 0 004.869 0 3.396 3.396 0 001.007-2.48z" fill="#fff"/><path d="M118.284 35.315h-6.819v4.604h6.595v1.876h-6.595v6.244h6.796v1.876h-8.863V33.433h8.886v1.882zm11.798 14.6h-2.267l-3.333-4.074-3.194 4.074h-2.342l4.501-5.392-3.569-4.604h2.256l2.348 3.217 2.625-3.217h2.302l-3.683 4.564 4.356 5.432zm11.119-4.984a5.602 5.602 0 01-1.318 3.828 4.29 4.29 0 01-3.378 1.513 4.201 4.201 0 01-3.528-1.997v7.545h-1.922v-15.9h1.922v1.726a4.213 4.213 0 013.528-2.037 4.29 4.29 0 013.367 1.514 5.566 5.566 0 011.329 3.81zm-1.962 0a3.793 3.793 0 00-.881-2.572 3.009 3.009 0 00-2.278-1.014 3.02 3.02 0 00-2.263 1.049 3.675 3.675 0 00-.943 2.538 3.834 3.834 0 00.874 2.595 2.969 2.969 0 002.36 1.059 2.814 2.814 0 002.262-1.03c.601-.748.91-1.689.869-2.648v.023zm12.897 2.607a5.08 5.08 0 01-1.934 1.969 5.248 5.248 0 01-2.699.771 5.013 5.013 0 01-3.758-1.473 5.323 5.323 0 01-1.433-3.868 5.44 5.44 0 011.347-3.74 4.652 4.652 0 013.643-1.578 4.501 4.501 0 013.597 1.537 5.562 5.562 0 011.26 3.758v.334h-7.89a3.359 3.359 0 00.874 2.411 2.955 2.955 0 002.262.927 3.453 3.453 0 003.171-1.9l1.56.852zm-1.899-3.74a3.017 3.017 0 00-.956-1.825 2.813 2.813 0 00-1.939-.696 3.045 3.045 0 00-1.974.69 3.103 3.103 0 00-1.099 1.83h5.968zm9.749-3.879l-.437 1.94a2.034 2.034 0 00-1.295-.415 2.07 2.07 0 00-1.796.972 4.026 4.026 0 00-.604 2.303v5.18h-1.922v-9.98h1.859v1.686c.736-1.33 1.628-1.997 2.664-1.997.525.015 1.042.12 1.531.31zm5.232 1.807h-1.6v8.19h-1.945v-8.19h-1.152v-1.807h1.152v-4.604h1.945v4.604h1.6v1.807z" fill="#F9B70F"/><path d="M129.415 60.338a4.532 4.532 0 01-1.479 3.637c-1.002.856-2.402 1.285-4.201 1.29h-1.261v6.905h-2.06V55.682h2.716c4.19 0 6.285 1.552 6.285 4.656zm-1.922.069c0-1.918-1.437-2.878-4.311-2.878h-.719v5.905h.92c2.74-.004 4.11-1.013 4.11-3.027zm9.749 1.773l-.437 1.939a2.006 2.006 0 00-1.29-.414 2.066 2.066 0 00-1.795.972 4.02 4.02 0 00-.61 2.302v5.18h-1.922v-9.98h1.858v1.687c.743-1.335 1.629-1.997 2.671-1.997.522.014 1.038.12 1.525.31zm11.205 5.007a5.116 5.116 0 01-1.571 3.78 5.432 5.432 0 01-7.62 0 5.322 5.322 0 01.828-8.223 5.323 5.323 0 012.982-.875 5.187 5.187 0 013.816 1.548 5.099 5.099 0 011.565 3.77zm-1.945 0a3.374 3.374 0 00-1.007-2.464 3.417 3.417 0 00-4.869 0 3.552 3.552 0 000 4.944 3.418 3.418 0 003.755.755 3.425 3.425 0 001.114-.755 3.397 3.397 0 001.007-2.48zm6.055-9.6a1.337 1.337 0 01-2.28.944c-.25-.25-.391-.59-.391-.944a1.248 1.248 0 01.409-.92 1.283 1.283 0 011.434-.294 1.3 1.3 0 01.425.293 1.244 1.244 0 01.403.92zm-.374 20.362h-1.923v-15.77h1.923v15.77zm11.682-8.155a5.109 5.109 0 01-1.933 1.968c-.821.5-1.762.764-2.723.765a4.997 4.997 0 01-3.758-1.479 5.303 5.303 0 01-1.433-3.862 5.435 5.435 0 011.347-3.74 4.648 4.648 0 013.643-1.577 4.499 4.499 0 013.597 1.536 5.545 5.545 0 011.26 3.758v.334h-7.867a3.36 3.36 0 00.875 2.412 2.953 2.953 0 002.262.926 3.455 3.455 0 003.171-1.899l1.559.858zm-1.899-3.741a3.01 3.01 0 00-.955-1.825 2.787 2.787 0 00-1.94-.713 3.045 3.045 0 00-1.974.69 3.109 3.109 0 00-1.099 1.83l5.968.018zm11.113 5.807a5.814 5.814 0 01-2.814.667 5.259 5.259 0 01-5.318-5.34 5.173 5.173 0 011.508-3.77 4.962 4.962 0 013.701-1.548 5.667 5.667 0 012.923.662v2.089a3.97 3.97 0 00-2.877-1.002 3.14 3.14 0 00-2.371 1.06 3.552 3.552 0 00-1.002 2.526c-.02.922.323 1.815.956 2.486a3.049 3.049 0 002.302 1.03 4.992 4.992 0 002.987-.95l.005 2.09zm5.813-7.88h-1.606v8.167h-1.939v-8.166h-1.151V62.18h1.151v-4.605h1.939v4.605h1.606v1.8z" fill="#fff"/></svg>