<svg width="238" height="114" fill="none" xmlns="http://www.w3.org/2000/svg"><path d="M113.15 54.515a16.54 16.54 0 016.003 6.073 16.653 16.653 0 012.191 8.275v12.412a16.674 16.674 0 01-2.226 8.267 16.555 16.555 0 01-6.028 6.05l-10.698 6.185a16.462 16.462 0 01-16.455-.03l-10.668-6.228a20.312 20.312 0 01-2.468-1.79c-.474.35-.966.677-1.473.977l-10.704 6.185a16.447 16.447 0 01-16.449 0l-10.692-6.258a16.564 16.564 0 01-6.004-6.076 16.686 16.686 0 01-2.196-8.278V67.874a16.66 16.66 0 012.236-8.272 16.545 16.545 0 016.042-6.046l10.699-6.184a17.51 17.51 0 012.625-1.172c0-.352-.043-.704-.043-1.062V32.726c.01-2.906.78-5.759 2.233-8.271a16.508 16.508 0 016.046-6.04l10.692-6.19a16.429 16.429 0 0116.455.03l10.656 6.233a16.516 16.516 0 016.008 6.067 16.64 16.64 0 012.192 8.274v12.412a20.63 20.63 0 01-.169 2.276c.521.231 1.029.49 1.521.777l10.674 6.221zm5.57 14.342c0-2.44-.636-4.838-1.844-6.954a13.92 13.92 0 00-5.041-5.106l-10.674-6.22a12.907 12.907 0 00-.809-.432 13.801 13.801 0 00-13.021.4L76.632 56.73c-.35.207-.688.42-1.007.65a16.944 16.944 0 013.505 6.907c.191.798.322 1.61.393 2.427v.2c0 .34.042.68.042 1.026v12.406a16.638 16.638 0 01-4.67 11.532l-.091.085c.561.457 1.152.877 1.768 1.256l10.674 6.227a13.82 13.82 0 006.912 1.855c2.426 0 4.809-.64 6.912-1.855l10.704-6.184a13.916 13.916 0 005.062-5.085 14.03 14.03 0 001.872-6.945l.012-12.375zM98.512 32.829c0-2.44-.637-4.838-1.846-6.954a13.92 13.92 0 00-5.045-5.105l-10.668-6.203a13.816 13.816 0 00-13.83 0l-10.693 6.13a13.918 13.918 0 00-5.073 5.084 14.022 14.022 0 00-1.878 6.951V45.66c.029.881.144 1.757.344 2.616a13.942 13.942 0 002.346 5.144 13.852 13.852 0 004.189 3.778l10.674 6.227c.26.152.531.297.803.437a17.088 17.088 0 013.904-6.604v-.036a16.156 16.156 0 011.93-1.7 17.29 17.29 0 011.594-1.055l10.692-6.179a16.412 16.412 0 0112.382-1.657c.042-.43.084-.965.09-1.372l.085-12.43zM76.958 67.977v-.328a18.82 18.82 0 01-3.017.243 16.643 16.643 0 01-4.157-.498h-.037c-.86-.225-1.7-.524-2.51-.892a18.886 18.886 0 01-1.52-.777L55.042 59.48a16.473 16.473 0 01-4.934-4.427 16.581 16.581 0 01-2.801-6.025l-.036-.157a13.54 13.54 0 00-1.702.789l-10.698 6.178a13.919 13.919 0 00-5.065 5.084 14.022 14.022 0 00-1.874 6.946v12.411c0 2.442.638 4.84 1.848 6.956a13.92 13.92 0 005.048 5.104l10.669 6.227a13.768 13.768 0 0013.824 0l10.674-6.154c.344-.194.676-.419 1.007-.643A14.6 14.6 0 0073 90.057a14.002 14.002 0 003.928-9.675l.03-12.405zm-.386-3.077a14.706 14.706 0 00-2.957-5.803 14.877 14.877 0 00-3.355 5.693c2.074.48 4.224.515 6.312.104v.006z" fill="#020202"/><path d="M111.835 56.797a13.92 13.92 0 015.041 5.106 14.016 14.016 0 011.843 6.954v12.412a14.018 14.018 0 01-1.871 6.944 13.924 13.924 0 01-5.062 5.085l-10.704 6.185a13.813 13.813 0 01-13.824 0l-10.674-6.227c-.616-.38-1.207-.8-1.768-1.257l.09-.085a16.638 16.638 0 004.67-11.531V67.977c0-.346 0-.686-.041-1.026v-.188c-.07-.818-.202-1.63-.393-2.428a16.944 16.944 0 00-3.505-6.907c.32-.23.657-.443 1.007-.649l10.692-6.185a13.824 13.824 0 0110.566-1.341c.848.23 1.67.546 2.456.94.278.134.543.28.808.432l10.669 6.172z" fill="#020202"/><path d="M71.745 57.258a17.1 17.1 0 00-3.904 6.604 17.01 17.01 0 01-.803-.437l-10.68-6.227a13.852 13.852 0 01-4.186-3.779 13.943 13.943 0 01-2.343-5.143 13.426 13.426 0 01-.35-2.616V32.732c.01-2.442.658-4.839 1.878-6.951a13.92 13.92 0 015.073-5.084l10.693-6.179a13.816 13.816 0 0113.83 0l10.668 6.227a13.92 13.92 0 015.045 5.105 14.022 14.022 0 011.846 6.955v12.406c0 .407-.049.94-.091 1.372a16.413 16.413 0 00-12.382 1.657l-10.71 6.202c-.55.323-1.082.675-1.593 1.056a16.155 16.155 0 00-1.931 1.7v.036l-.06.024z" fill="#F9B70F"/><path d="M76.946 67.642v12.74a14.002 14.002 0 01-5.931 11.386c-.332.225-.664.45-1.008.643l-10.71 6.185a13.768 13.768 0 01-13.825 0l-10.668-6.251a13.92 13.92 0 01-5.048-5.104 14.022 14.022 0 01-1.849-6.956V67.873a14.022 14.022 0 011.884-6.953 13.919 13.919 0 015.08-5.082l10.698-6.179a13.54 13.54 0 011.702-.789l.036.158a16.581 16.581 0 002.801 6.024 16.475 16.475 0 004.934 4.427l10.669 6.227c.5.292 1.013.54 1.52.777.81.369 1.65.667 2.51.892h.037c1.36.34 2.756.508 4.157.498a18.788 18.788 0 003.011-.23z" fill="#fff"/><path d="M129.937 22.863h-4.266v15.404h-2.161V22.863h-4.266v-1.985h10.693v1.985zm8.49 12.892a5.448 5.448 0 01-2.028 2.081 5.473 5.473 0 01-2.854.802 5.223 5.223 0 01-3.94-1.554 5.592 5.592 0 01-1.503-4.073 5.755 5.755 0 011.412-3.945 4.873 4.873 0 013.838-1.663 4.705 4.705 0 013.771 1.62 5.875 5.875 0 011.322 3.964v.346h-8.273a3.573 3.573 0 00.923 2.549 3.114 3.114 0 002.372.977 3.607 3.607 0 001.951-.516 3.633 3.633 0 001.373-1.487l1.636.898zm-1.992-3.94a3.194 3.194 0 00-1.007-1.923 2.9 2.9 0 00-2.028-.76 3.198 3.198 0 00-2.075.73 3.296 3.296 0 00-1.153 1.93l6.263.024zm11.652 6.125a6.07 6.07 0 01-2.957.697 5.35 5.35 0 01-3.97-1.614 5.774 5.774 0 010-7.975 5.174 5.174 0 013.88-1.633 5.926 5.926 0 013.065.698v2.203a4.16 4.16 0 00-3.017-1.056 3.296 3.296 0 00-2.516 1.087 3.776 3.776 0 00-1.044 2.658 3.72 3.72 0 001.002 2.628 3.179 3.179 0 002.413 1.086 5.211 5.211 0 003.132-1.001l.012 2.221zm11.139.327h-2.034v-6.252c0-1.877-.585-2.816-1.756-2.816a2.924 2.924 0 00-2.142.856 3.77 3.77 0 00-1.044 2.84v5.372h-2.003V20.028h2.015v9.104a3.724 3.724 0 011.393-1.327 3.693 3.693 0 011.866-.451c2.478 0 3.717 1.445 3.717 4.334l-.012 6.579zm11.646.001h-2.04v-6.252a3.52 3.52 0 00-.501-2.124 2.054 2.054 0 00-1.732-.692 2.398 2.398 0 00-2.069.856 4.884 4.884 0 00-.634 2.84v5.372h-2.015V27.725h2.015v1.457a3.724 3.724 0 011.393-1.328 3.694 3.694 0 011.866-.45c2.482 0 3.721 1.444 3.717 4.333v6.53zm13.111-5.257a5.408 5.408 0 01-1.647 4.012 5.697 5.697 0 01-3.995 1.637 5.697 5.697 0 01-3.994-1.637 5.645 5.645 0 01-1.214-6.15 5.608 5.608 0 012.082-2.523 5.555 5.555 0 013.126-.923 5.402 5.402 0 014.001 1.633 5.39 5.39 0 011.641 3.951zm-2.039 0a3.574 3.574 0 00-1.056-2.598 3.568 3.568 0 00-5.105 0 3.758 3.758 0 000 5.214 3.57 3.57 0 003.936.797 3.57 3.57 0 001.169-.797 3.59 3.59 0 001.056-2.616z" fill="#020202"/><path d="M149.179 46.734h-7.15v4.855h6.915v1.979h-6.915v6.585h7.126v1.979h-9.292V44.749h9.316v1.985zm12.37 15.397h-2.378l-3.493-4.297-3.349 4.297h-2.456l4.719-5.687-3.741-4.855h2.365l2.462 3.393 2.751-3.393h2.414l-3.862 4.813 4.568 5.73zm11.658-5.255a5.936 5.936 0 01-1.382 4.036 4.482 4.482 0 01-3.542 1.596 4.388 4.388 0 01-2.119-.574 4.415 4.415 0 01-1.58-1.532v7.957h-2.015V51.59h2.015v1.821a4.423 4.423 0 011.574-1.554 4.391 4.391 0 012.125-.594 4.48 4.48 0 013.53 1.596 5.892 5.892 0 011.394 4.018zm-2.058 0a4.018 4.018 0 00-.923-2.713 3.146 3.146 0 00-4.761.036 3.896 3.896 0 00-.99 2.677c-.039.995.288 1.97.918 2.737a3.095 3.095 0 002.473 1.117 2.937 2.937 0 002.372-1.086 4.19 4.19 0 00.911-2.792v.024zm13.522 2.749a5.338 5.338 0 01-2.027 2.076 5.481 5.481 0 01-2.83.813 5.232 5.232 0 01-3.94-1.554 5.614 5.614 0 01-1.503-4.078 5.756 5.756 0 011.412-3.945 4.872 4.872 0 013.82-1.663 4.697 4.697 0 013.771 1.62 5.881 5.881 0 011.321 3.963v.352h-8.272a3.553 3.553 0 00.917 2.543 3.095 3.095 0 002.371.977 3.607 3.607 0 001.952-.516 3.633 3.633 0 001.373-1.486l1.635.898zm-1.991-3.945a3.186 3.186 0 00-1.002-1.924 2.938 2.938 0 00-2.033-.734 3.18 3.18 0 00-2.07.728 3.281 3.281 0 00-1.152 1.93h6.257zm10.222-4.09l-.459 2.045a2.12 2.12 0 00-1.358-.437 2.157 2.157 0 00-1.882 1.026 4.27 4.27 0 00-.634 2.427v5.463h-2.015V51.59h1.949v1.778c.772-1.402 1.708-2.106 2.794-2.106a4.75 4.75 0 011.605.328zm5.485 1.905h-1.678v8.636h-2.039v-8.636h-1.207v-1.906h1.207v-4.856h2.039v4.856h1.678v1.906z" fill="#F9B70F"/><path d="M160.849 73.123a4.787 4.787 0 01-1.551 3.836c-1.05.902-2.518 1.355-4.404 1.36h-1.322V85.6h-2.16V68.213h2.848c4.393 0 6.589 1.637 6.589 4.91zm-2.015.073c0-2.023-1.507-3.035-4.52-3.035h-.754v6.227h.965c2.873-.004 4.309-1.068 4.309-3.192zm10.221 1.869l-.458 2.045a2.094 2.094 0 00-1.352-.437 2.157 2.157 0 00-1.883 1.026 4.271 4.271 0 00-.639 2.428v5.462h-2.015V75.065h1.949v1.778c.778-1.408 1.707-2.106 2.799-2.106a4.718 4.718 0 011.599.328zm11.749 5.281a5.418 5.418 0 01-1.648 3.987 5.678 5.678 0 01-3.994 1.645 5.68 5.68 0 01-3.995-1.645 5.634 5.634 0 01.868-8.672 5.557 5.557 0 013.127-.923 5.402 5.402 0 014 1.633 5.389 5.389 0 011.642 3.975zm-2.04 0a3.566 3.566 0 00-1.056-2.598 3.58 3.58 0 00-2.552-1.074 3.572 3.572 0 00-2.553 1.074 3.758 3.758 0 000 5.214 3.581 3.581 0 002.553 1.076 3.566 3.566 0 002.552-1.076c.343-.341.614-.75.795-1.2a3.58 3.58 0 00.261-1.416zm6.348-10.124c0 .374-.148.732-.41.996a1.398 1.398 0 01-2.39-.996 1.312 1.312 0 01.428-.97 1.35 1.35 0 011.949 0 1.314 1.314 0 01.423.97zm-.392 21.474h-2.016v-16.63h2.016v16.63zm12.249-8.601a5.38 5.38 0 01-2.028 2.076 5.479 5.479 0 01-2.854.807 5.213 5.213 0 01-3.94-1.56 5.592 5.592 0 01-1.503-4.073 5.755 5.755 0 011.412-3.945 4.873 4.873 0 013.82-1.663 4.696 4.696 0 013.771 1.62 5.875 5.875 0 011.322 3.964v.352h-8.249c-.041.936.289 1.85.917 2.543a3.096 3.096 0 002.372.977 3.606 3.606 0 001.951-.516 3.632 3.632 0 001.373-1.487l1.636.905zm-1.992-3.945a3.185 3.185 0 00-1.001-1.924 2.912 2.912 0 00-2.034-.753 3.177 3.177 0 00-2.069.728 3.282 3.282 0 00-1.153 1.93l6.257.019zm11.652 6.124a6.067 6.067 0 01-2.951.704 5.515 5.515 0 01-5.174-3.47 5.58 5.58 0 01-.401-2.162 5.49 5.49 0 011.581-3.976 5.17 5.17 0 013.88-1.633 5.915 5.915 0 013.065.698v2.204a4.162 4.162 0 00-3.017-1.056 3.267 3.267 0 00-2.486 1.116 3.759 3.759 0 00-1.05 2.665 3.714 3.714 0 001.002 2.622 3.193 3.193 0 002.413 1.086 5.212 5.212 0 003.132-1.001l.006 2.203zm6.095-8.309h-1.684v8.612h-2.033v-8.612H207.8v-1.9h1.207V70.21h2.033v4.855h1.684v1.9z" fill="#020202"/></svg>