<svg width="30" height="30" fill="none" xmlns="http://www.w3.org/2000/svg"><path d="M14.483 6.583c2.29 0 4.448 1.015 6.03 2.602v.005c0-.762.512-1.339 1.221-1.339h.18c1.119 0 1.343 1.055 1.343 1.388l.004 11.845c-.078.776.802 1.177 1.29.679 1.899-1.953 4.174-10.05-1.182-14.737C18.374 2.651 11.67 3.374 8.106 5.83c-3.789 2.617-6.21 8.399-3.858 13.833 2.569 5.924 9.912 7.69 14.283 5.928 2.212-.893 3.232 2.094.933 3.072-3.466 1.478-13.125 1.327-17.637-6.485-3.048-5.277-2.886-14.56 5.2-19.37C13.21-.873 21.365.147 26.28 5.28c5.138 5.371 4.84 15.42-.175 19.327-2.272 1.777-5.645.049-5.62-2.54l-.026-.843c-1.581 1.566-3.686 2.485-5.976 2.485-4.531 0-8.52-3.99-8.52-8.516 0-4.575 3.989-8.608 8.52-8.608v-.001zm5.699 8.281c-.172-3.316-2.633-5.312-5.607-5.312h-.112c-3.428 0-5.332 2.7-5.332 5.76 0 3.433 2.3 5.6 5.318 5.6 3.368 0 5.58-2.464 5.741-5.38l-.008-.668z" fill="#020202"/></svg>