<svg width="26" height="26" fill="none" xmlns="http://www.w3.org/2000/svg"><path d="M14.25 8A3.75 3.75 0 0118 11.75a1.25 1.25 0 002.5 0 6.25 6.25 0 00-6.25-6.25 1.25 1.25 0 000 2.5z" fill="#020202"/><path d="M14.25 3A8.75 8.75 0 0123 11.75a1.25 1.25 0 002.5 0A11.25 11.25 0 0014.25.5a1.25 1.25 0 100 2.5zm10.938 14.887a1.25 1.25 0 00-.9-.812l-7.5-1.712a1.25 1.25 0 00-1.15.325c-.175.162-.188.175-1 1.725A12.387 12.387 0 018.55 11.3c1.587-.8 1.6-.8 1.762-.988a1.25 1.25 0 00.325-1.15L8.925 1.75a1.25 1.25 0 00-.813-.9 4.738 4.738 0 00-.9-.225A4.925 4.925 0 006.25.5 5.75 5.75 0 00.5 6.25 19.275 19.275 0 0019.75 25.5a5.75 5.75 0 005.75-5.75c0-.318-.025-.636-.075-.95a5.421 5.421 0 00-.238-.913z" fill="#020202"/></svg>