<svg width="24" height="24" fill="none" xmlns="http://www.w3.org/2000/svg"><path d="M20.4 3.488A11.803 11.803 0 0011.987 0C5.432 0 .098 5.334.098 11.892c0 2.096.549 4.145 1.589 5.945L0 24l6.304-1.654a11.894 11.894 0 005.681 1.449h.005c6.553 0 11.891-5.334 11.891-11.892a11.83 11.83 0 00-3.483-8.414l.002-.001zm-8.41 18.3a9.875 9.875 0 01-5.035-1.379l-.361-.216-3.741.98.999-3.647-.234-.375a9.806 9.806 0 01-1.514-5.259 9.899 9.899 0 019.892-9.886 9.828 9.828 0 016.988 2.896 9.831 9.831 0 012.892 6.993c-.005 5.456-4.439 9.891-9.887 9.891v.002zm5.419-7.406c-.296-.15-1.758-.867-2.03-.966-.271-.099-.469-.15-.67.15-.197.296-.768.966-.942 1.167-.174.197-.346.225-.642.075-.296-.15-1.257-.463-2.391-1.476-.882-.787-1.48-1.762-1.655-2.058-.174-.295-.019-.459.132-.604.137-.132.296-.347.446-.52.15-.175.197-.296.296-.497.099-.197.05-.37-.024-.52-.075-.15-.671-1.613-.914-2.209-.239-.582-.488-.5-.67-.511-.175-.01-.371-.01-.568-.01-.196 0-.52.076-.792.371-.271.296-1.04 1.017-1.04 2.48 0 1.462 1.063 2.874 1.213 3.075.15.196 2.096 3.2 5.076 4.486a18.67 18.67 0 001.692.629c.713.225 1.359.192 1.87.117.572-.084 1.759-.717 2.008-1.412.248-.694.248-1.288.174-1.411-.071-.132-.268-.206-.568-.357l-.001.001z" fill="#020202"/></svg>