<svg width="41" height="30" fill="none" xmlns="http://www.w3.org/2000/svg"><path d="M40.879 14.857c0-.098 0-.21-.005-.34-.004-.362-.013-.768-.022-1.202a67.221 67.221 0 00-.197-3.659c-.134-1.613-.33-2.957-.598-3.967a6.234 6.234 0 00-4.392-4.401c-1.265-.34-3.74-.55-7.225-.68a210.15 210.15 0 00-5.205-.124c-.62-.01-1.197-.014-1.715-.018h-1.314c-.518.004-1.095.009-1.716.018a210.15 210.15 0 00-5.205.125C9.8.743 7.321.953 6.061 1.288a6.226 6.226 0 00-4.392 4.4c-.273 1.01-.465 2.355-.599 3.968a67.275 67.275 0 00-.197 3.66c-.013.433-.017.84-.022 1.201 0 .13-.004.242-.004.34v.25c0 .098 0 .21.004.34.005.362.014.768.022 1.201.036 1.247.099 2.49.197 3.66.134 1.613.33 2.957.599 3.967a6.226 6.226 0 004.392 4.401c1.26.34 3.74.55 7.224.68 1.658.062 3.432.102 5.205.124.621.01 1.198.014 1.716.018h1.314c.518-.004 1.094-.009 1.715-.018 1.774-.022 3.548-.062 5.205-.125 3.485-.134 5.965-.344 7.225-.679a6.218 6.218 0 004.392-4.4c.272-1.01.464-2.355.598-3.968a66.788 66.788 0 00.219-4.861c0-.13.005-.242.005-.34v-.25zm-3.217.232c0 .094 0 .197-.005.317-.004.349-.013.733-.022 1.149a60.454 60.454 0 01-.188 3.48c-.12 1.439-.29 2.618-.5 3.41a3.006 3.006 0 01-2.118 2.121c-.938.25-3.301.452-6.514.572a202.553 202.553 0 01-6.813.139h-1.278l-1.689-.014a203.084 203.084 0 01-5.125-.125c-3.212-.125-5.58-.322-6.514-.572a3.014 3.014 0 01-2.118-2.122c-.21-.79-.38-1.97-.5-3.409a64.708 64.708 0 01-.188-3.48 57.646 57.646 0 01-.022-1.149c0-.12-.004-.228-.004-.317v-.214c0-.094 0-.197.004-.318.004-.348.013-.732.022-1.148a60.88 60.88 0 01.188-3.48c.12-1.439.29-2.618.5-3.41a3.006 3.006 0 012.118-2.121c.938-.25 3.302-.452 6.514-.572a202.998 202.998 0 016.814-.139h1.278l1.689.014c1.747.022 3.493.062 5.124.125 3.213.125 5.58.321 6.514.572a3.014 3.014 0 012.118 2.122c.21.79.38 1.97.5 3.409.094 1.103.152 2.292.188 3.48.014.416.018.804.023 1.148 0 .121.004.228.004.318v.214zm-20.776 5.88l10.366-6.032-10.366-5.942v11.974z" fill="#020202"/></svg>