<svg width="16" height="20" viewBox="0 0 16 20" fill="none" xmlns="http://www.w3.org/2000/svg">
<path d="M14.2649 2.60801C12.0571 0.400195 8.46174 0.400195 6.25627 2.60801L0.139084 8.72051C0.0992406 8.76035 0.0781467 8.81426 0.0781467 8.87051C0.0781467 8.92676 0.0992406 8.98066 0.139084 9.02051L1.00393 9.88535C1.04346 9.92471 1.09697 9.94681 1.15276 9.94681C1.20854 9.94681 1.26205 9.92471 1.30158 9.88535L7.41877 3.77285C8.17815 3.01348 9.1883 2.59629 10.2617 2.59629C11.3352 2.59629 12.3453 3.01348 13.1024 3.77285C13.8617 4.53223 14.2789 5.54238 14.2789 6.61348C14.2789 7.68691 13.8617 8.69473 13.1024 9.4541L6.86799 15.6861L5.85783 16.6963C4.9133 17.6408 3.37815 17.6408 2.43362 16.6963C1.97658 16.2393 1.7258 15.6322 1.7258 14.9854C1.7258 14.3385 1.97658 13.7314 2.43362 13.2744L8.61877 7.0916C8.7758 6.93691 8.98205 6.85019 9.20236 6.85019H9.20471C9.42502 6.85019 9.62893 6.93691 9.78361 7.0916C9.94065 7.24863 10.025 7.45488 10.025 7.67519C10.025 7.89316 9.9383 8.09941 9.78361 8.2541L4.72815 13.3049C4.6883 13.3447 4.66721 13.3986 4.66721 13.4549C4.66721 13.5111 4.6883 13.565 4.72815 13.6049L5.59299 14.4697C5.63252 14.5091 5.68603 14.5312 5.74182 14.5312C5.7976 14.5312 5.85111 14.5091 5.89065 14.4697L10.9438 9.4166C11.4102 8.9502 11.6656 8.33145 11.6656 7.67285C11.6656 7.01426 11.4078 6.39316 10.9438 5.9291C9.98049 4.96582 8.41486 4.96816 7.45158 5.9291L6.85158 6.53145L1.26877 12.1119C0.889859 12.4886 0.589503 12.9368 0.38512 13.4304C0.180737 13.9241 0.0763961 14.4534 0.0781467 14.9877C0.0781467 16.0729 0.502365 17.0924 1.26877 17.8588C2.0633 18.651 3.10393 19.0471 4.14455 19.0471C5.18518 19.0471 6.2258 18.651 7.01799 17.8588L14.2649 10.6166C15.3313 9.54785 15.9219 8.1252 15.9219 6.61348C15.9242 5.09941 15.3336 3.67676 14.2649 2.60801Z" fill="#F9B70F"/>
</svg>
