<svg width="181" height="27" viewBox="0 0 181 27" fill="none" xmlns="http://www.w3.org/2000/svg">
<g opacity="0.95">
<path d="M96.5961 22.2662C96.2067 22.2662 95.7957 22.18 95.5145 21.9645C95.3415 21.8136 95.1035 21.5118 95.1035 21.0161V10.7344H97.2882V19.9168C97.2882 20.0461 97.2666 20.2616 97.4397 20.4125C97.5046 20.4556 97.6343 20.5419 97.9804 20.5419H104.34V22.2662H96.5961Z" fill="#020202"/>
<path d="M107.887 11.8988C108.298 10.9288 108.753 10.6055 109.791 10.6055C110.786 10.6055 111.283 10.9288 111.694 11.8988L116.064 22.2667H113.771L112.581 19.3568H107.001L105.832 22.2667H103.54L107.887 11.8988ZM107.563 17.8048H112.019L110.137 13.1058C110.072 12.9334 109.964 12.6316 109.813 12.6316C109.661 12.6316 109.553 12.955 109.488 13.1058L107.563 17.8048Z" fill="#020202"/>
<path d="M123.85 10.7344C124.477 10.7344 125.343 10.799 125.948 11.4241C126.597 12.0923 126.684 13.1485 126.684 13.9029C126.684 14.528 126.64 15.1747 126.143 15.7782C125.818 16.1662 125.472 16.3387 125.061 16.3818V16.4464C125.602 16.4895 126.056 16.7482 126.338 17.05C126.878 17.6535 126.878 18.4726 126.878 19.1192C126.878 19.8737 126.878 20.8005 126.208 21.5334C125.537 22.2662 124.802 22.2662 124.088 22.2662H118.55C117.966 22.2662 117.447 22.3309 116.971 21.8136C116.863 21.6843 116.582 21.2963 116.582 20.6496V12.3941C116.582 11.963 116.69 11.5104 116.95 11.2086C117.296 10.799 117.815 10.7344 118.183 10.7344H123.85ZM118.745 15.5627H122.985C123.417 15.5627 123.872 15.5627 124.175 15.1531C124.261 15.0454 124.412 14.7651 124.412 13.9892C124.412 13.6658 124.391 13.1054 124.023 12.7605C123.699 12.4588 123.309 12.4588 122.942 12.4588H119.372C119.199 12.4588 119.005 12.4372 118.875 12.5881C118.745 12.739 118.723 12.9761 118.723 13.1054L118.745 15.5627ZM118.745 19.6797C118.745 20.0676 118.788 20.2616 118.875 20.3479C119.048 20.5419 119.416 20.5203 119.589 20.5203H123.028C123.374 20.5203 123.98 20.4987 124.304 20.1108C124.542 19.809 124.607 19.3132 124.607 18.9468C124.607 18.6235 124.564 18.0846 124.369 17.7828C124.239 17.6104 123.915 17.3086 123.201 17.3086H118.767L118.745 19.6797Z" fill="#020202"/>
<path d="M128.155 20.5419H134.58C135.618 20.5419 135.661 19.6797 135.661 19.2917C135.661 18.839 135.553 18.3001 134.536 17.9984L129.972 16.5542C129.799 16.5111 129.064 16.2524 128.61 15.692C128.09 15.0669 128.004 14.1616 128.004 13.515C128.004 12.8252 128.09 11.9846 128.739 11.381C129.345 10.8206 130.08 10.7344 130.643 10.7344H137.305V12.4588H131.4C131.097 12.4588 130.751 12.4803 130.491 12.7174C130.21 12.9761 130.189 13.3856 130.189 13.6012C130.189 14.1185 130.34 14.6143 131.27 14.8945L135.51 16.2309C136.289 16.468 136.808 16.7266 137.154 17.05C137.846 17.7182 137.911 18.7312 137.911 19.2701C137.911 20.003 137.803 20.8005 137.327 21.4041C136.743 22.1369 136.029 22.2231 135.25 22.2231H128.155V20.5419Z" fill="#020202"/>
<path d="M142.28 11.8988C142.691 10.9288 143.146 10.6055 144.184 10.6055C145.179 10.6055 145.677 10.9288 146.087 11.8988L150.457 22.2667H148.164L146.974 19.3568H141.394L140.225 22.2667H137.933L142.28 11.8988ZM141.956 17.8048H146.412L144.53 13.1058C144.465 12.9334 144.357 12.6316 144.206 12.6316C144.054 12.6316 143.946 12.955 143.881 13.1058L141.956 17.8048Z" fill="#020202"/>
<path d="M152.447 22.2662C152.057 22.2662 151.646 22.18 151.365 21.9645C151.192 21.8136 150.954 21.5118 150.954 21.0161V10.7344H153.139V19.9168C153.139 20.0461 153.117 20.2616 153.29 20.4125C153.355 20.4556 153.485 20.5419 153.831 20.5419H160.191V22.2662H152.447Z" fill="#020202"/>
<path d="M162.613 22.2663C162.116 22.2663 161.662 22.2663 161.294 21.8999C160.905 21.5119 160.861 20.9946 160.861 20.5419V12.3726C160.861 11.92 161.013 11.4458 161.251 11.1655C161.64 10.756 162.202 10.7129 162.635 10.7129H170.054V12.4373H163.803C163.608 12.4373 163.371 12.4588 163.197 12.6097C163.024 12.7822 163.024 12.9977 163.024 13.1701V15.4981H169.903V17.2225H163.046V19.9168C163.046 20.0893 163.111 20.2833 163.219 20.3695C163.349 20.4988 163.608 20.5204 163.955 20.5204H170.141V22.2448H162.613V22.2663Z" fill="#020202"/>
<path d="M171.287 20.5419H177.69C178.728 20.5419 178.772 19.6797 178.772 19.2917C178.772 18.839 178.663 18.3002 177.647 17.9984L173.083 16.5542C172.91 16.5111 172.174 16.2524 171.72 15.692C171.201 15.0669 171.114 14.1616 171.114 13.515C171.114 12.8252 171.201 11.9846 171.85 11.381C172.455 10.8206 173.191 10.7344 173.753 10.7344H180.415V12.4588H174.489C174.186 12.4588 173.84 12.4803 173.58 12.7174C173.299 12.9761 173.277 13.3856 173.277 13.6012C173.277 14.1185 173.429 14.6143 174.359 14.8945L178.599 16.2309C179.377 16.468 179.896 16.7266 180.242 17.05C180.935 17.7182 181 18.7312 181 19.2701C181 20.003 180.891 20.8005 180.415 21.4041C179.831 22.1369 179.118 22.2231 178.339 22.2231H171.222V20.5419H171.287Z" fill="#020202"/>
<path d="M90.6042 10.0015L86.7971 0.862196C86.6673 0.560428 86.5592 0.344878 86.4294 0.237104C86.278 0.0862196 86.0616 0 85.8021 0C85.5425 0 85.3262 0.0862196 85.1748 0.237104C85.045 0.344878 84.9368 0.560428 84.8071 0.862196L81 10.023V20.5849C81 21.1454 81.1082 21.5333 81.3461 21.792C81.584 22.0507 81.9301 22.1584 82.3844 22.1584H89.2414C89.6957 22.1584 90.0417 22.0291 90.2797 21.792C90.5176 21.5333 90.6258 21.1454 90.6258 20.5849L90.6042 10.0015ZM89.674 10.0015V11.6396C89.5226 11.5534 89.3496 11.4888 89.1549 11.4672C88.8304 11.4241 88.5276 11.5103 88.2896 11.6828L86.5159 9.82904C86.5808 9.69971 86.6241 9.57038 86.6457 9.44105C86.7322 8.75129 86.2563 8.1262 85.5641 8.03998C84.8719 7.95376 84.2446 8.42797 84.1581 9.11772C84.1149 9.52727 84.2663 9.91526 84.5475 10.1955L83.7471 11.8552C83.7039 11.8552 83.6606 11.8336 83.6173 11.8336C83.4227 11.8121 83.2064 11.8336 83.0333 11.8983L82.0167 9.80748L85.4992 1.03464C85.5858 0.819086 85.6939 0.711312 85.8021 0.711312C85.9102 0.711312 85.9968 0.819086 86.1049 1.03464L89.674 10.0015Z" fill="#020202"/>
</g>
<path opacity="0.95" d="M5.65332 12.9014C4.55501 12.9014 3.68685 13.2682 3.04883 14.002C2.41536 14.7311 2.09863 15.7314 2.09863 17.0029C2.09863 18.3109 2.40397 19.3226 3.01465 20.0381C3.62988 20.749 4.50488 21.1045 5.63965 21.1045C6.33691 21.1045 7.13216 20.9792 8.02539 20.7285V21.7471C7.33268 22.0068 6.47819 22.1367 5.46191 22.1367C3.98991 22.1367 2.85286 21.6901 2.05078 20.7969C1.25326 19.9036 0.854492 18.6344 0.854492 16.9893C0.854492 15.9593 1.0459 15.057 1.42871 14.2822C1.81608 13.5075 2.37207 12.9105 3.09668 12.4912C3.82585 12.0719 4.68262 11.8623 5.66699 11.8623C6.71517 11.8623 7.63118 12.0537 8.41504 12.4365L7.92285 13.4346C7.16634 13.0791 6.40983 12.9014 5.65332 12.9014ZM16.543 24.5908H15.4424V22H10.2061V24.5908H9.1123V21.0225H9.7002C10.3109 20.193 10.7894 19.2201 11.1357 18.1035C11.4821 16.987 11.6621 15.7884 11.6758 14.5078H15.4697V21.0225H16.543V24.5908ZM14.376 21.0225V15.4033H12.6943C12.6351 16.415 12.4391 17.4404 12.1064 18.4795C11.7783 19.514 11.3682 20.3617 10.876 21.0225H14.376ZM21.2119 22.1367C20.1045 22.1367 19.2295 21.7995 18.5869 21.125C17.9489 20.4505 17.6299 19.514 17.6299 18.3154C17.6299 17.1077 17.9261 16.1484 18.5186 15.4375C19.1156 14.7266 19.9154 14.3711 20.918 14.3711C21.8568 14.3711 22.5996 14.681 23.1465 15.3008C23.6934 15.916 23.9668 16.7295 23.9668 17.7412V18.459H18.8057C18.8285 19.3385 19.0495 20.0062 19.4688 20.4619C19.8926 20.9176 20.4873 21.1455 21.2529 21.1455C22.0596 21.1455 22.8571 20.9769 23.6455 20.6396V21.6514C23.2445 21.8245 22.8639 21.9476 22.5039 22.0205C22.1484 22.098 21.7178 22.1367 21.2119 22.1367ZM20.9043 15.3213C20.3027 15.3213 19.8219 15.5173 19.4619 15.9092C19.1064 16.3011 18.8968 16.8434 18.833 17.5361H22.75C22.75 16.8206 22.5905 16.2738 22.2715 15.8955C21.9525 15.5127 21.4967 15.3213 20.9043 15.3213ZM31.4932 22H30.3447V15.4785H28.0957C27.9727 17.1009 27.8018 18.3883 27.583 19.3408C27.3643 20.2933 27.0794 20.9906 26.7285 21.4326C26.3822 21.8747 25.9401 22.0957 25.4023 22.0957C25.1562 22.0957 24.9603 22.0684 24.8145 22.0137V21.1729C24.9147 21.2002 25.0286 21.2139 25.1562 21.2139C25.6803 21.2139 26.0973 20.6602 26.4072 19.5527C26.7171 18.4453 26.9518 16.7637 27.1113 14.5078H31.4932V22ZM38.5137 22L38.2881 20.9336H38.2334C37.8597 21.403 37.486 21.722 37.1123 21.8906C36.7432 22.0547 36.2806 22.1367 35.7246 22.1367C34.9818 22.1367 34.3984 21.9453 33.9746 21.5625C33.5553 21.1797 33.3457 20.6351 33.3457 19.9287C33.3457 18.4157 34.5557 17.6227 36.9756 17.5498L38.2471 17.5088V17.0439C38.2471 16.4561 38.1195 16.0231 37.8643 15.7451C37.6136 15.4626 37.2103 15.3213 36.6543 15.3213C36.0299 15.3213 35.3236 15.5127 34.5352 15.8955L34.1865 15.0273C34.5557 14.8268 34.959 14.6696 35.3965 14.5557C35.8385 14.4417 36.2806 14.3848 36.7227 14.3848C37.6159 14.3848 38.2767 14.583 38.7051 14.9795C39.138 15.376 39.3545 16.0117 39.3545 16.8867V22H38.5137ZM35.9502 21.2002C36.6566 21.2002 37.2103 21.0065 37.6113 20.6191C38.0169 20.2318 38.2197 19.6895 38.2197 18.9922V18.3154L37.085 18.3633C36.1826 18.3952 35.5309 18.5365 35.1299 18.7871C34.7334 19.0332 34.5352 19.4183 34.5352 19.9424C34.5352 20.3525 34.6582 20.6647 34.9043 20.8789C35.1549 21.0931 35.5036 21.2002 35.9502 21.2002ZM42.834 14.5078V17.6455H47.0312V14.5078H48.166V22H47.0312V18.623H42.834V22H41.6992V14.5078H42.834ZM57.0391 18.2471C57.0391 19.4684 56.7314 20.4232 56.1162 21.1113C55.501 21.7949 54.651 22.1367 53.5664 22.1367C52.8965 22.1367 52.3018 21.9795 51.7822 21.665C51.2627 21.3506 50.8617 20.8994 50.5791 20.3115C50.2965 19.7236 50.1553 19.0355 50.1553 18.2471C50.1553 17.0257 50.4606 16.0755 51.0713 15.3965C51.682 14.7129 52.5296 14.3711 53.6143 14.3711C54.6624 14.3711 55.4941 14.7197 56.1094 15.417C56.7292 16.1143 57.0391 17.0576 57.0391 18.2471ZM51.3311 18.2471C51.3311 19.2041 51.5225 19.9333 51.9053 20.4346C52.2881 20.9359 52.8509 21.1865 53.5938 21.1865C54.3366 21.1865 54.8994 20.9382 55.2822 20.4414C55.6696 19.9401 55.8633 19.2087 55.8633 18.2471C55.8633 17.2946 55.6696 16.5723 55.2822 16.0801C54.8994 15.5833 54.332 15.335 53.5801 15.335C52.8372 15.335 52.2767 15.5788 51.8984 16.0664C51.5202 16.554 51.3311 17.2809 51.3311 18.2471ZM68.749 16.3877C68.749 16.8753 68.6077 17.2467 68.3252 17.502C68.0472 17.7526 67.6553 17.9212 67.1494 18.0078V18.0693C67.7874 18.1559 68.2523 18.3428 68.5439 18.6299C68.8402 18.917 68.9883 19.3135 68.9883 19.8193C68.9883 20.5166 68.7308 21.0544 68.2158 21.4326C67.7054 21.8109 66.958 22 65.9736 22H62.6719V14.5078H65.96C67.8193 14.5078 68.749 15.1344 68.749 16.3877ZM67.8535 19.7441C67.8535 19.3385 67.6986 19.0446 67.3887 18.8623C67.0833 18.6755 66.5752 18.582 65.8643 18.582H63.8066V21.0498H65.8916C67.1995 21.0498 67.8535 20.6146 67.8535 19.7441ZM67.6416 16.4971C67.6416 16.1325 67.5003 15.875 67.2178 15.7246C66.9398 15.5697 66.516 15.4922 65.9463 15.4922H63.8066V17.6045H65.7275C66.4294 17.6045 66.9238 17.5179 67.2109 17.3447C67.498 17.1715 67.6416 16.889 67.6416 16.4971Z" fill="#020202"/>
</svg>
