<svg width="179" height="90" viewBox="0 0 179 90" fill="none" xmlns="http://www.w3.org/2000/svg">
<path d="M83.9204 42.6925C86.2999 44.0778 88.2742 46.0635 89.6457 48.451C91.0172 50.8385 91.7379 53.5442 91.7359 56.2977V68.0669C91.7259 70.8209 90.9936 73.524 89.6121 75.9063C88.2305 78.2887 86.2481 80.2669 83.8628 81.6433L73.659 87.5078C71.2682 88.8736 68.5614 89.5896 65.808 89.5845C63.0546 89.5795 60.3505 88.8536 57.9647 87.479L47.7896 81.5742C46.9636 81.068 46.1768 80.5005 45.4357 79.8765C44.9838 80.2091 44.5151 80.5184 44.0315 80.8031L33.8219 86.6675C31.4346 88.0378 28.7301 88.7588 25.9776 88.7588C23.2251 88.7588 20.5206 88.0378 18.1334 86.6675L7.93525 80.734C5.55533 79.3472 3.58067 77.3605 2.2083 74.9723C0.835924 72.584 0.113814 69.8776 0.114014 67.1231V55.3596C0.125716 52.6033 0.861261 49.8984 2.24701 47.5158C3.63277 45.1331 5.6201 43.1563 8.01006 41.7832L18.2139 35.9187C19.0167 35.4807 19.854 35.1092 20.7174 34.808C20.7174 34.4742 20.6771 34.1404 20.6771 33.8008V22.0316C20.6863 19.2755 21.4209 16.5705 22.807 14.1883C24.193 11.8062 26.1817 9.83087 28.5732 8.46094L38.7713 2.5907C41.1612 1.22211 43.8683 0.504498 46.6223 0.509548C49.3763 0.514597 52.0807 1.24213 54.4656 2.61948L64.6291 8.53C67.0105 9.91229 68.9866 11.8963 70.3594 14.2832C71.7321 16.6701 72.4532 19.3759 72.4504 22.1294V33.8987C72.4363 34.6205 72.3825 35.341 72.2892 36.0568C72.7857 36.2759 73.2698 36.5218 73.7395 36.7935L83.9204 42.6925ZM89.2324 56.2919C89.2327 53.9782 88.6266 51.7047 87.4744 49.6983C86.3222 47.6918 84.6643 46.0224 82.6657 44.8565L72.4849 38.9574C72.2317 38.8136 71.9784 38.6754 71.7137 38.5488C70.9646 38.1742 70.1799 37.8754 69.3714 37.6568C67.6906 37.1948 65.9352 37.0694 64.2059 37.2877C62.4766 37.5059 60.8074 38.0636 59.2941 38.9287L49.0903 44.7931C48.7565 44.9888 48.4342 45.1903 48.1291 45.4089C49.7361 47.3035 50.8807 49.5456 51.4729 51.9583C51.6549 52.7152 51.7799 53.4847 51.847 54.2603V54.3352V54.4503C51.847 54.7726 51.8873 55.0948 51.8873 55.4229V67.1864C51.8788 71.2715 50.2813 75.193 47.4328 78.1212L47.3465 78.2017C47.882 78.6351 48.4453 79.0331 49.0327 79.393L59.2135 85.2978C61.2196 86.45 63.4926 87.0563 65.8061 87.0563C68.1195 87.0563 70.3925 86.45 72.3986 85.2978L82.6082 79.4333C84.6111 78.2757 86.2756 76.6133 87.4358 74.6119C88.596 72.6105 89.2115 70.34 89.2208 68.0266L89.2324 56.2919ZM69.9584 22.1294C69.9582 19.8151 69.3512 17.5413 68.198 15.5348C67.0448 13.5282 65.3856 11.8591 63.386 10.6939L53.2109 4.81218C51.2042 3.65894 48.9301 3.05205 46.6155 3.05205C44.301 3.05205 42.0269 3.65894 40.0202 4.81218L29.822 10.6249C27.8151 11.7809 26.1466 13.4432 24.9832 15.4458C23.8198 17.4485 23.2022 19.7213 23.1921 22.0373V33.8008C23.1921 33.9735 23.1921 34.1346 23.1921 34.2958C23.2193 35.1314 23.3292 35.9623 23.5202 36.7762C23.9236 38.5383 24.6851 40.1986 25.7574 41.654C26.8296 43.1094 28.1896 44.3287 29.753 45.2363L39.9338 51.1411C40.1813 51.2849 40.4403 51.4231 40.6993 51.5554C41.4488 49.2125 42.7222 47.0712 44.4228 45.2938V45.2593C44.993 44.6741 45.6088 44.1353 46.2645 43.6479C46.7521 43.2864 47.2594 42.9521 47.7838 42.6465L57.9819 36.7877C61.5604 34.7364 65.8012 34.1722 69.7915 35.2166C69.8318 34.808 69.8721 34.3015 69.8778 33.9159L69.9584 22.1294ZM49.401 55.4574C49.401 55.3538 49.401 55.2502 49.401 55.1466C48.4495 55.3002 47.4873 55.3772 46.5235 55.3768C45.1872 55.3862 43.855 55.2276 42.5582 54.9049H42.5236C41.7031 54.6913 40.9021 54.4082 40.1295 54.0589C39.6461 53.8345 39.1569 53.5985 38.6792 53.3223L28.4984 47.4002C26.6616 46.334 25.0605 44.9058 23.7923 43.2022C22.524 41.4987 21.615 39.5553 21.1203 37.4899L21.0857 37.3402C20.5282 37.5519 19.9859 37.8019 19.4628 38.0884L9.25893 43.9471C7.25499 45.1041 5.58934 46.7661 4.42806 48.7676C3.26678 50.769 2.65045 53.0399 2.64052 55.3538V67.1231C2.64133 69.438 3.24919 71.7121 4.40344 73.7187C5.5577 75.7253 7.21799 77.3941 9.21865 78.5586L19.3937 84.4633C21.3983 85.62 23.6719 86.2289 25.9862 86.2289C28.3006 86.2289 30.5742 85.62 32.5788 84.4633L42.7596 78.6276C43.0876 78.4434 43.4042 78.2305 43.7207 78.0176C44.4032 77.5349 45.0408 76.9918 45.6257 76.3946C48.0152 73.9372 49.3583 70.6486 49.3723 67.2209L49.401 55.4574ZM49.0327 52.5396C48.5171 50.5173 47.5533 48.637 46.2127 47.0377C44.7538 48.5736 43.66 50.4188 43.0128 52.436C44.9904 52.8903 47.0414 52.9237 49.0327 52.5338V52.5396Z" fill="white"/>
<path d="M82.6657 44.8567C84.6642 46.0226 86.3222 47.692 87.4744 49.6985C88.6266 51.7049 89.2327 53.9784 89.2323 56.2921V68.0614C89.223 70.3747 88.6075 72.6453 87.4473 74.6467C86.287 76.648 84.6225 78.3104 82.6197 79.4681L72.41 85.3326C70.404 86.4848 68.1309 87.0911 65.8175 87.0911C63.5041 87.0911 61.2311 86.4848 59.225 85.3326L49.0442 79.4278C48.4567 79.0678 47.8935 78.6699 47.3579 78.2365L47.4442 78.1559C50.2927 75.2277 51.8902 71.3062 51.8987 67.2211V55.4576C51.8987 55.1296 51.8987 54.8073 51.8584 54.485V54.3699V54.3066C51.7914 53.531 51.6664 52.7615 51.4843 52.0046C50.8922 49.5919 49.7475 47.3498 48.1406 45.4552C48.4456 45.2365 48.7679 45.0351 49.1017 44.8394L59.2998 38.9749C60.8131 38.1099 62.4823 37.5522 64.2116 37.3339C65.9409 37.1157 67.6964 37.2411 69.3771 37.703C70.1856 37.9216 70.9703 38.2205 71.7194 38.5951C71.9842 38.7217 72.2374 38.8598 72.4906 39.0037L82.6657 44.8567Z" fill="#020202"/>
<path d="M44.4286 45.2939C42.728 47.0713 41.4546 49.2126 40.705 51.5555C40.4461 51.4232 40.1871 51.285 39.9396 51.1412L29.753 45.2364C28.1907 44.3282 26.8318 43.1086 25.7606 41.6533C24.6894 40.1979 23.9287 38.5379 23.5259 36.7763C23.333 35.9626 23.2212 35.1317 23.1921 34.2959C23.1921 34.1347 23.1921 33.9736 23.1921 33.8009V22.0374C23.2022 19.7214 23.8198 17.4486 24.9832 15.4459C26.1466 13.4433 27.8151 11.781 29.8221 10.625L40.0202 4.76624C42.0269 3.613 44.301 3.0061 46.6156 3.0061C48.9301 3.0061 51.2042 3.613 53.211 4.76624L63.386 10.671C65.3856 11.8362 67.0448 13.5053 68.198 15.5118C69.3512 17.5184 69.9582 19.7922 69.9584 22.1065V33.87C69.9584 34.2556 69.9124 34.762 69.8721 35.1707C65.8818 34.1262 61.641 34.6904 58.0625 36.7418L47.8472 42.6236C47.3227 42.9291 46.8154 43.2635 46.3278 43.625C45.6721 44.1124 45.0563 44.6512 44.4862 45.2364V45.2709L44.4286 45.2939Z" fill="#F9B70F"/>
<path d="M49.3895 55.141C49.3895 55.2446 49.3895 55.3482 49.3895 55.4518V67.221C49.3739 70.6495 48.0287 73.9382 45.6371 76.3947C45.0522 76.9919 44.4146 77.535 43.7322 78.0177C43.4156 78.2306 43.0991 78.4435 42.771 78.6277L32.5557 84.4922C30.5511 85.6489 28.2775 86.2578 25.9632 86.2578C23.6488 86.2578 21.3752 85.6489 19.3706 84.4922L9.19556 78.5644C7.1949 77.3999 5.53461 75.7311 4.38035 73.7246C3.2261 71.718 2.61824 69.4438 2.61743 67.1289V55.3597C2.62869 53.0425 3.24803 50.7689 4.41351 48.7662C5.579 46.7635 7.24979 45.1018 9.25886 43.9472L19.4627 38.0885C19.9858 37.802 20.5281 37.552 21.0857 37.3403L21.1202 37.49C21.6149 39.5554 22.5239 41.4988 23.7922 43.2023C25.0605 44.9059 26.6615 46.3341 28.4983 47.4003L38.6734 53.3051C39.1511 53.5813 39.6403 53.8173 40.1237 54.0418C40.8963 54.3911 41.6973 54.6741 42.5178 54.8878H42.5524C43.8491 55.2105 45.1813 55.369 46.5176 55.3597C47.4792 55.3635 48.4396 55.2904 49.3895 55.141Z" fill="white"/>
<path d="M99.9313 12.6795H95.8624V27.2861H93.802V12.6795H89.7332V10.7976H99.9313V12.6795Z" fill="white"/>
<path d="M108.029 24.9035C107.575 25.7245 106.906 26.4068 106.095 26.8776C105.274 27.3752 104.333 27.638 103.373 27.6372C102.678 27.6673 101.985 27.5518 101.338 27.2981C100.691 27.0443 100.104 26.658 99.6147 26.1639C99.13 25.6486 98.7534 25.0414 98.5073 24.3781C98.2611 23.7149 98.1504 23.009 98.1817 22.3022C98.1418 20.9299 98.6229 19.5934 99.5284 18.5614C99.9835 18.0437 100.548 17.6336 101.181 17.3609C101.814 17.0882 102.5 16.9596 103.189 16.9845C103.865 16.9543 104.54 17.0767 105.162 17.3427C105.785 17.6087 106.34 18.0115 106.786 18.5211C107.654 19.5758 108.103 20.914 108.046 22.2792V22.6072H100.156C100.119 23.4976 100.435 24.3663 101.036 25.0244C101.326 25.3305 101.677 25.5714 102.067 25.7312C102.457 25.8909 102.877 25.9659 103.298 25.951C103.952 25.9674 104.598 25.7976 105.159 25.4614C105.72 25.1252 106.175 24.6363 106.469 24.0518L108.029 24.9035ZM106.13 21.1684C106.033 20.4664 105.693 19.8207 105.168 19.3441C104.64 18.8646 103.948 18.6069 103.235 18.6247C102.514 18.6147 101.813 18.8593 101.255 19.3153C100.685 19.7771 100.295 20.4251 100.156 21.1454L106.13 21.1684Z" fill="white"/>
<path d="M117.243 26.9752C116.373 27.4301 115.403 27.6577 114.423 27.6371C113.72 27.655 113.022 27.5283 112.37 27.265C111.719 27.0016 111.128 26.6072 110.636 26.1062C109.659 25.0899 109.113 23.7349 109.113 22.3251C109.113 20.9153 109.659 19.5603 110.636 18.544C111.111 18.0422 111.685 17.6453 112.322 17.3787C112.96 17.1121 113.646 16.9817 114.336 16.9958C115.353 16.9507 116.362 17.1793 117.26 17.6577V19.7468C116.87 19.3989 116.415 19.1314 115.921 18.9596C115.427 18.7878 114.904 18.715 114.382 18.7454C113.932 18.7361 113.485 18.8232 113.071 19.0009C112.657 19.1786 112.286 19.4427 111.982 19.7756C111.332 20.4522 110.974 21.3578 110.987 22.2963C110.965 23.2202 111.309 24.1155 111.942 24.7883C112.23 25.1145 112.584 25.3753 112.982 25.553C113.379 25.7307 113.809 25.8212 114.244 25.8185C115.316 25.831 116.363 25.498 117.231 24.8689L117.243 26.9752Z" fill="white"/>
<path d="M127.867 27.2861H125.927V21.3583C125.927 19.5781 125.369 18.688 124.252 18.688C123.875 18.6785 123.499 18.7456 123.148 18.885C122.797 19.0245 122.478 19.2335 122.209 19.4994C121.866 19.8547 121.6 20.2777 121.428 20.7414C121.257 21.2051 121.184 21.6994 121.214 22.1928V27.2861H119.303V9.99194H121.225V18.6247C121.55 18.0958 122.008 17.6616 122.553 17.3657C123.099 17.0697 123.713 16.9223 124.333 16.9384C126.696 16.9384 127.878 18.3081 127.878 21.0476L127.867 27.2861Z" fill="white"/>
<path d="M138.974 27.286H137.029V21.3582C137.088 20.6531 136.921 19.9475 136.551 19.3439C136.347 19.1123 136.091 18.9322 135.804 18.8182C135.517 18.7042 135.207 18.6595 134.899 18.6879C134.529 18.6537 134.156 18.7097 133.813 18.851C133.469 18.9923 133.165 19.2148 132.925 19.4993C132.453 20.3142 132.242 21.2543 132.321 22.1927V27.286H130.399V17.2894H132.321V18.6706C132.646 18.1417 133.104 17.7076 133.649 17.4116C134.195 17.1156 134.809 16.9683 135.429 16.9843C137.796 16.9843 138.978 18.3541 138.974 21.0935V27.286Z" fill="white"/>
<path d="M151.48 22.3022C151.496 23.0106 151.364 23.7144 151.094 24.3693C150.823 25.0241 150.42 25.6156 149.909 26.1064C148.891 27.1019 147.523 27.6593 146.099 27.6593C144.675 27.6593 143.307 27.1019 142.289 26.1064C141.538 25.3598 141.027 24.406 140.82 23.3672C140.614 22.3283 140.723 21.2516 141.132 20.2746C141.541 19.2977 142.232 18.465 143.117 17.883C144.002 17.301 145.04 16.9962 146.099 17.0075C146.807 16.991 147.511 17.1198 148.167 17.3861C148.824 17.6524 149.418 18.0504 149.915 18.5556C150.418 19.0396 150.817 19.6219 151.086 20.2664C151.356 20.9109 151.49 21.6038 151.48 22.3022ZM149.535 22.3022C149.543 21.8448 149.458 21.3906 149.285 20.9671C149.111 20.5436 148.854 20.1598 148.528 19.839C148.21 19.5164 147.831 19.2603 147.413 19.0854C146.995 18.9106 146.546 18.8205 146.093 18.8205C145.64 18.8205 145.192 18.9106 144.774 19.0854C144.356 19.2603 143.977 19.5164 143.659 19.839C143.017 20.5015 142.657 21.3881 142.657 22.3109C142.657 23.2337 143.017 24.1202 143.659 24.7827C143.977 25.106 144.355 25.3628 144.773 25.5381C145.191 25.7134 145.64 25.8037 146.093 25.8037C146.547 25.8037 146.995 25.7134 147.413 25.5381C147.831 25.3628 148.21 25.106 148.528 24.7827C148.855 24.4591 149.113 24.0723 149.286 23.6459C149.459 23.2195 149.544 22.7624 149.535 22.3022Z" fill="white"/>
<path d="M118.284 35.3145H111.465V39.9187H118.06V41.7948H111.465V48.0392H118.261V49.9153H109.398V33.4326H118.284V35.3145Z" fill="#F9B70F"/>
<path d="M130.082 49.9154H127.815L124.482 45.8407L121.288 49.9154H118.946L123.447 44.5228L119.878 39.9187H122.134L124.482 43.1358L127.107 39.9187H129.409L125.726 44.4825L130.082 49.9154Z" fill="#F9B70F"/>
<path d="M141.201 44.9315C141.254 46.3268 140.784 47.6916 139.883 48.7586C139.469 49.247 138.95 49.6363 138.366 49.8982C137.781 50.1601 137.145 50.2879 136.505 50.2722C135.796 50.264 135.101 50.0766 134.484 49.7274C133.867 49.3782 133.349 48.8787 132.977 48.2752V55.8202H131.055V39.9187H132.977V41.6453C133.345 41.0347 133.861 40.5275 134.478 40.1711C135.095 39.8148 135.793 39.621 136.505 39.608C137.143 39.594 137.777 39.7226 138.359 39.9845C138.942 40.2463 139.458 40.6348 139.872 41.1216C140.776 42.1805 141.25 43.5399 141.201 44.9315ZM139.239 44.9315C139.273 43.9946 138.96 43.0781 138.358 42.3589C138.073 42.0373 137.722 41.7804 137.329 41.6056C136.936 41.4308 136.51 41.342 136.08 41.3453C135.65 41.3486 135.226 41.4438 134.835 41.6246C134.445 41.8054 134.098 42.0675 133.817 42.3935C133.191 43.0886 132.854 43.9962 132.874 44.9315C132.836 45.8748 133.147 46.7989 133.748 47.527C134.036 47.8707 134.398 48.1446 134.806 48.328C135.215 48.5115 135.66 48.5997 136.108 48.586C136.539 48.5989 136.967 48.5127 137.359 48.3341C137.751 48.1555 138.097 47.8892 138.37 47.5558C138.971 46.808 139.28 45.8671 139.239 44.9084V44.9315Z" fill="#F9B70F"/>
<path d="M152.136 47.5385C151.685 48.3606 151.016 49.0418 150.202 49.5068C149.389 50.0042 148.456 50.2708 147.503 50.278C146.809 50.3063 146.116 50.19 145.469 49.9363C144.822 49.6827 144.235 49.2973 143.745 48.8047C143.261 48.2879 142.884 47.6797 142.638 47.0155C142.392 46.3514 142.281 45.6448 142.312 44.9372C142.273 43.565 142.754 42.2287 143.659 41.1964C144.112 40.681 144.674 40.2723 145.303 39.9997C145.933 39.727 146.616 39.5972 147.302 39.6195C147.978 39.5885 148.653 39.7105 149.276 39.9766C149.899 40.2426 150.453 40.6458 150.899 41.1561C151.766 42.2114 152.215 43.5492 152.159 44.9142V45.248H144.269C144.23 46.1358 144.544 47.0029 145.143 47.6594C145.432 47.9664 145.784 48.2079 146.174 48.3677C146.564 48.5276 146.984 48.602 147.405 48.586C148.059 48.6024 148.705 48.4326 149.266 48.0964C149.828 47.7602 150.282 47.2713 150.576 46.6868L152.136 47.5385ZM150.237 43.7977C150.142 43.0963 149.804 42.4505 149.281 41.9733C148.746 41.5043 148.053 41.2555 147.342 41.2769C146.623 41.2668 145.924 41.5115 145.368 41.9676C144.797 42.4287 144.407 43.077 144.269 43.7977H150.237Z" fill="#F9B70F"/>
<path d="M159.986 39.9187L159.549 41.8582C159.177 41.5754 158.72 41.4291 158.254 41.4438C157.896 41.4365 157.542 41.5223 157.227 41.6928C156.913 41.8633 156.648 42.1126 156.458 42.4164C156.029 43.1054 155.819 43.9078 155.854 44.7185V49.8981H153.932V39.9187H155.791V41.6049C156.527 40.2755 157.419 39.6079 158.455 39.6079C158.98 39.6225 159.497 39.7277 159.986 39.9187Z" fill="#F9B70F"/>
<path d="M165.218 41.7259H163.618V49.9155H161.673V41.7259H160.521V39.9188H161.673V35.3147H163.618V39.9188H165.218V41.7259Z" fill="#F9B70F"/>
<path d="M129.415 60.3378C129.457 61.0161 129.345 61.6952 129.089 62.3248C128.833 62.9544 128.439 63.5183 127.936 63.975C126.934 64.8306 125.534 65.2604 123.735 65.2642H122.474V72.1704H120.414V55.6819H123.13C127.32 55.6819 129.415 57.2339 129.415 60.3378ZM127.493 60.4069C127.493 58.4885 126.056 57.5293 123.182 57.5293H122.463V63.4341H123.383C126.123 63.4302 127.493 62.4212 127.493 60.4069Z" fill="white"/>
<path d="M137.242 62.1794L136.805 64.1189C136.436 63.8353 135.98 63.6888 135.515 63.7045C135.157 63.6972 134.804 63.783 134.489 63.9535C134.174 64.124 133.909 64.3734 133.72 64.6772C133.289 65.3655 133.076 66.1679 133.11 66.9792V72.1588H131.188V62.1794H133.046V63.8657C133.789 62.5305 134.675 61.8687 135.717 61.8687C136.239 61.8834 136.755 61.9885 137.242 62.1794Z" fill="white"/>
<path d="M148.447 67.1866C148.46 67.8911 148.327 68.5907 148.057 69.2414C147.787 69.8921 147.385 70.4798 146.876 70.9677C145.86 71.9673 144.492 72.5275 143.066 72.5275C141.641 72.5275 140.273 71.9673 139.256 70.9677C138.505 70.2211 137.994 69.2673 137.788 68.2285C137.581 67.1896 137.69 66.1129 138.099 65.1359C138.508 64.159 139.199 63.3263 140.084 62.7443C140.969 62.1623 142.007 61.8575 143.066 61.8688C143.774 61.8523 144.478 61.9812 145.135 62.2474C145.791 62.5137 146.386 62.9118 146.882 63.417C147.388 63.9036 147.789 64.4896 148.058 65.1383C148.328 65.787 148.46 66.4843 148.447 67.1866ZM146.502 67.1866C146.51 66.7292 146.425 66.2749 146.252 65.8515C146.079 65.428 145.821 65.0442 145.495 64.7234C145.177 64.4008 144.798 64.1446 144.38 63.9698C143.962 63.7949 143.514 63.7049 143.061 63.7049C142.608 63.7049 142.159 63.7949 141.741 63.9698C141.323 64.1446 140.944 64.4008 140.626 64.7234C139.984 65.3859 139.625 66.2724 139.625 67.1952C139.625 68.118 139.984 69.0046 140.626 69.6671C140.944 69.9904 141.323 70.2472 141.741 70.4225C142.159 70.5978 142.607 70.688 143.061 70.688C143.514 70.688 143.963 70.5978 144.381 70.4225C144.798 70.2472 145.177 69.9904 145.495 69.6671C145.822 69.3434 146.08 68.9567 146.253 68.5303C146.426 68.1039 146.511 67.6467 146.502 67.1866Z" fill="white"/>
<path d="M152.557 57.5869C152.557 57.941 152.416 58.2806 152.166 58.531C151.915 58.7814 151.576 58.9221 151.221 58.9221C150.867 58.9221 150.528 58.7814 150.277 58.531C150.027 58.2806 149.886 57.941 149.886 57.5869C149.887 57.4135 149.923 57.242 149.994 57.0835C150.064 56.9249 150.167 56.7828 150.295 56.6661C150.415 56.5409 150.559 56.4414 150.719 56.3733C150.879 56.3053 151.051 56.2703 151.224 56.2703C151.398 56.2703 151.57 56.3053 151.729 56.3733C151.889 56.4414 152.033 56.5409 152.154 56.6661C152.281 56.7831 152.383 56.9254 152.452 57.084C152.522 57.2425 152.557 57.4138 152.557 57.5869ZM152.183 77.9486H150.26V62.1795H152.183V77.9486Z" fill="white"/>
<path d="M163.865 69.7936C163.413 70.6145 162.745 71.2954 161.932 71.7618C161.111 72.2612 160.17 72.526 159.209 72.5273C158.515 72.5559 157.821 72.4391 157.174 72.1844C156.527 71.9297 155.94 71.5427 155.451 71.0482C154.967 70.5329 154.59 69.9257 154.344 69.2624C154.098 68.5991 153.987 67.8933 154.018 67.1865C153.978 65.8142 154.46 64.4776 155.365 63.4456C155.818 62.9302 156.38 62.5216 157.01 62.2489C157.64 61.9763 158.322 61.8465 159.008 61.8687C159.685 61.8377 160.359 61.9598 160.982 62.2259C161.605 62.4919 162.16 62.8951 162.605 63.4054C163.474 64.4601 163.922 65.7983 163.865 67.1635V67.4973H155.998C155.959 68.3851 156.274 69.2521 156.873 69.9087C157.162 70.2156 157.513 70.4572 157.903 70.617C158.294 70.7768 158.713 70.8512 159.135 70.8352C159.789 70.8517 160.434 70.6819 160.996 70.3457C161.557 70.0094 162.011 69.5206 162.306 68.936L163.865 69.7936ZM161.966 66.0527C161.872 65.3513 161.534 64.7055 161.011 64.2283C160.48 63.7506 159.785 63.4951 159.071 63.5147C158.352 63.5046 157.653 63.7492 157.097 64.2053C156.526 64.6664 156.137 65.3148 155.998 66.0355L161.966 66.0527Z" fill="white"/>
<path d="M173.079 71.8597C172.212 72.3158 171.244 72.5454 170.265 72.5273C169.563 72.5351 168.866 72.402 168.216 72.1361C167.565 71.8702 166.975 71.4767 166.479 70.9789C165.984 70.4811 165.593 69.889 165.33 69.2377C165.067 68.5864 164.937 67.8889 164.947 67.1865C164.932 66.489 165.057 65.7956 165.317 65.1478C165.576 64.5 165.963 63.9113 166.455 63.4169C166.93 62.9152 167.505 62.5182 168.142 62.2516C168.779 61.985 169.465 61.8546 170.156 61.8688C171.172 61.8231 172.182 62.0517 173.079 62.5306V64.6197C172.689 64.2718 172.234 64.0043 171.74 63.8325C171.246 63.6607 170.724 63.5879 170.202 63.6183C169.754 63.6153 169.31 63.7082 168.901 63.8909C168.492 64.0735 168.127 64.3417 167.831 64.6773C167.175 65.3533 166.815 66.2621 166.829 67.2038C166.809 68.1258 167.152 69.0189 167.785 69.69C168.073 70.0159 168.427 70.2765 168.824 70.4542C169.221 70.6318 169.652 70.7225 170.087 70.7202C171.158 70.7327 172.206 70.3997 173.074 69.7706L173.079 71.8597Z" fill="white"/>
<path d="M178.892 63.9809H177.286V72.1475H175.347V63.9809H174.196V62.1796H175.347V57.5754H177.286V62.1796H178.892V63.9809Z" fill="white"/>
</svg>
