<svg width="238" height="114" viewBox="0 0 238 114" fill="none" xmlns="http://www.w3.org/2000/svg">
<path d="M113.15 54.5151C115.645 55.976 117.715 58.0701 119.153 60.5879C120.591 63.1058 121.347 65.9592 121.344 68.863V81.2747C121.334 84.179 120.566 87.0297 119.118 89.5421C117.669 92.0545 115.591 94.1406 113.09 95.5922L102.392 101.777C99.8849 103.217 97.0469 103.972 94.1601 103.967C91.2733 103.962 88.4381 103.196 85.9367 101.747L75.2686 95.5194C74.4026 94.9855 73.5776 94.387 72.8007 93.729C72.3268 94.0797 71.8354 94.4059 71.3284 94.7061L60.624 100.891C58.1211 102.336 55.2855 103.096 52.3996 103.096C49.5137 103.096 46.6782 102.336 44.1752 100.891L33.483 94.6333C30.9877 93.1708 28.9174 91.0757 27.4785 88.557C26.0396 86.0384 25.2825 83.1842 25.2827 80.2794V67.8737C25.295 64.9669 26.0662 62.1144 27.5191 59.6017C28.972 57.0889 31.0556 55.0042 33.5614 53.5561L44.2597 47.3715C45.1014 46.9096 45.9792 46.5178 46.8845 46.2001C46.8845 45.8481 46.8423 45.4961 46.8423 45.138V32.7262C46.8519 29.8198 47.6221 26.967 49.0753 24.4549C50.5285 21.9427 52.6136 19.8595 55.121 18.4148L65.8133 12.2241C68.3189 10.7808 71.1572 10.024 74.0447 10.0293C76.9321 10.0346 79.7676 10.8019 82.268 12.2544L92.9241 18.4876C95.4209 19.9454 97.4928 22.0377 98.932 24.5549C100.371 27.0721 101.127 29.9256 101.124 32.8294V45.2412C101.11 46.0024 101.053 46.7622 100.955 47.5172C101.476 47.7481 101.984 48.0075 102.476 48.294L113.15 54.5151ZM118.72 68.8569C118.72 66.4168 118.084 64.0193 116.876 61.9033C115.668 59.7873 113.93 58.0267 111.835 56.7972L101.161 50.5761C100.895 50.4244 100.63 50.2787 100.352 50.1452C99.5666 49.7501 98.7439 49.435 97.8962 49.2044C96.134 48.7173 94.2935 48.585 92.4804 48.8152C90.6672 49.0454 88.9172 49.6335 87.3306 50.5458L76.6323 56.7304C76.2823 56.9368 75.9444 57.1492 75.6246 57.3798C77.3094 59.3778 78.5095 61.7423 79.1303 64.2867C79.3212 65.085 79.4523 65.8965 79.5226 66.7144V66.7933V66.9147C79.5226 67.2546 79.5648 67.5945 79.5648 67.9404V80.3461C79.5559 84.6542 77.881 88.7898 74.8945 91.8778L74.804 91.9628C75.3655 92.4199 75.956 92.8395 76.5719 93.2191L87.2461 99.4463C89.3494 100.661 91.7326 101.301 94.1581 101.301C96.5836 101.301 98.9668 100.661 101.07 99.4463L111.774 93.2616C113.874 92.0408 115.62 90.2876 116.836 88.177C118.052 86.0663 118.698 83.6719 118.708 81.2322L118.72 68.8569ZM98.5116 32.8294C98.5114 30.3888 97.875 27.9908 96.6659 25.8748C95.4568 23.7587 93.7173 21.9985 91.6208 20.7697L80.9526 14.5668C78.8486 13.3506 76.4643 12.7106 74.0376 12.7106C71.6109 12.7106 69.2267 13.3506 67.1226 14.5668L56.4303 20.6969C54.3262 21.9159 52.5768 23.669 51.357 25.781C50.1373 27.8929 49.4897 30.2899 49.4792 32.7323V45.138C49.4792 45.3201 49.4792 45.49 49.4792 45.66C49.5077 46.5412 49.6229 47.4174 49.8231 48.2758C50.2461 50.1341 51.0445 51.8851 52.1687 53.4199C53.2929 54.9547 54.7188 56.2406 56.3579 57.1977L67.0321 63.4249C67.2916 63.5766 67.5631 63.7223 67.8347 63.8619C68.6205 61.391 69.9556 59.1328 71.7387 57.2584V57.222C72.3364 56.6049 72.9821 56.0366 73.6696 55.5226C74.1808 55.1414 74.7126 54.7888 75.2625 54.4665L85.9548 48.288C89.7066 46.1246 94.153 45.5296 98.3366 46.6311C98.3789 46.2001 98.4211 45.666 98.4272 45.2594L98.5116 32.8294ZM76.9581 67.9768C76.9581 67.8676 76.9581 67.7584 76.9581 67.6491C75.9605 67.8111 74.9516 67.8922 73.9411 67.8919C72.54 67.9017 71.1433 67.7345 69.7836 67.3942H69.7474C68.8871 67.1689 68.0474 66.8704 67.2373 66.502C66.7304 66.2653 66.2175 66.0165 65.7167 65.7251L55.0425 59.4798C53.1167 58.3554 51.4381 56.8492 50.1084 55.0526C48.7786 53.2561 47.8256 51.2066 47.3069 49.0284L47.2707 48.8706C46.6861 49.0939 46.1175 49.3575 45.5691 49.6596L34.8708 55.8382C32.7697 57.0583 31.0234 58.8111 29.8058 60.9218C28.5883 63.0325 27.9421 65.4274 27.9317 67.8676V80.2794C27.9325 82.7206 28.5698 85.1189 29.78 87.235C30.9902 89.3512 32.7309 91.111 34.8285 92.3391L45.4967 98.5662C47.5984 99.786 49.9822 100.428 52.4087 100.428C54.8352 100.428 57.2189 99.786 59.3206 98.5662L69.9948 92.4119C70.3388 92.2177 70.6706 91.9931 71.0025 91.7686C71.7181 91.2596 72.3865 90.6868 72.9998 90.057C75.5051 87.4654 76.9133 83.9973 76.9279 80.3825L76.9581 67.9768ZM76.5719 64.8997C76.0314 62.7671 75.0209 60.7841 73.6152 59.0974C72.0856 60.7173 70.9389 62.6632 70.2603 64.7905C72.3337 65.2696 74.4841 65.3048 76.5719 64.8936V64.8997Z" fill="#020202"/>
<path d="M111.835 56.7972C113.93 58.0268 115.668 59.7873 116.876 61.9033C118.084 64.0193 118.72 66.4169 118.719 68.8569V81.2687C118.71 83.7083 118.064 86.1028 116.848 88.2135C115.631 90.3241 113.886 92.0772 111.786 93.2981L101.082 99.4827C98.9787 100.698 96.5956 101.337 94.17 101.337C91.7445 101.337 89.3614 100.698 87.2581 99.4827L76.5839 93.2556C75.968 92.876 75.3774 92.4563 74.8159 91.9993L74.9064 91.9143C77.8929 88.8263 79.5679 84.6907 79.5768 80.3826V67.9769C79.5768 67.6309 79.5768 67.2911 79.5345 66.9512V66.8298V66.763C79.4643 65.9451 79.3332 65.1335 79.1423 64.3353C78.5215 61.7909 77.3213 59.4264 75.6365 57.4284C75.9563 57.1978 76.2943 56.9854 76.6442 56.779L87.3365 50.5944C88.9231 49.6821 90.6732 49.094 92.4863 48.8638C94.2994 48.6336 96.1399 48.7659 97.9021 49.253C98.7498 49.4836 99.5725 49.7987 100.358 50.1938C100.636 50.3273 100.901 50.473 101.166 50.6247L111.835 56.7972Z" fill="#020202"/>
<path d="M71.7446 57.2585C69.9615 59.1328 68.6264 61.3911 67.8405 63.8619C67.569 63.7223 67.2975 63.5766 67.038 63.4249L56.3578 57.1978C54.7198 56.24 53.295 54.9539 52.1719 53.4191C51.0488 51.8843 50.2513 50.1337 49.829 48.2759C49.6267 47.4177 49.5095 46.5414 49.479 45.66C49.479 45.4901 49.479 45.3201 49.479 45.138V32.7324C49.4896 30.2899 50.1371 27.893 51.3569 25.781C52.5767 23.6691 54.326 21.916 56.4302 20.6969L67.1225 14.5183C69.2265 13.3021 71.6108 12.6621 74.0375 12.6621C76.4642 12.6621 78.8485 13.3021 80.9525 14.5183L91.6206 20.7455C93.7171 21.9743 95.4567 23.7345 96.6658 25.8505C97.8749 27.9666 98.5113 30.3645 98.5115 32.8052V45.2109C98.5115 45.6175 98.4632 46.1516 98.421 46.5825C94.2373 45.4811 89.791 46.0761 86.0392 48.2395L75.3288 54.4423C74.7789 54.7646 74.2471 55.1171 73.7358 55.4984C73.0483 56.0124 72.4027 56.5806 71.8049 57.1978V57.2342L71.7446 57.2585Z" fill="#F9B70F"/>
<path d="M76.946 67.6425C76.946 67.7518 76.946 67.861 76.946 67.9703V80.382C76.9297 83.9976 75.5193 87.4659 73.0118 90.0565C72.3985 90.6863 71.7301 91.2591 71.0145 91.7681C70.6827 91.9926 70.3508 92.2172 70.0069 92.4114L59.2965 98.596C57.1948 99.8158 54.811 100.458 52.3845 100.458C49.958 100.458 47.5742 99.8158 45.4725 98.596L34.8044 92.3446C32.7068 91.1166 30.966 89.3567 29.7558 87.2406C28.5456 85.1245 27.9083 82.7261 27.9075 80.2849V67.8732C27.9193 65.4295 28.5686 63.0318 29.7906 60.9197C31.0125 58.8077 32.7643 57.0553 34.8707 55.8377L45.5691 49.6591C46.1175 49.357 46.6861 49.0934 47.2707 48.8701L47.3069 49.0279C47.8255 51.2061 48.7786 53.2556 50.1083 55.0521C51.438 56.8487 53.1167 58.3548 55.0425 59.4793L65.7106 65.7064C66.2115 65.9977 66.7243 66.2466 67.2312 66.4833C68.0413 66.8517 68.881 67.1501 69.7414 67.3755H69.7776C71.1372 67.7158 72.5339 67.883 73.935 67.8732C74.9432 67.8772 75.95 67.8001 76.946 67.6425Z" fill="white"/>
<path d="M129.937 22.8626H125.671V38.2665H123.51V22.8626H119.244V20.8779H129.937V22.8626Z" fill="#020202"/>
<path d="M138.427 35.7545C137.951 36.6203 137.25 37.3399 136.399 37.8363C135.539 38.3611 134.551 38.6382 133.545 38.6375C132.817 38.6692 132.09 38.5474 131.412 38.2798C130.733 38.0122 130.118 37.6048 129.605 37.0837C129.097 36.5403 128.702 35.8999 128.444 35.2005C128.186 34.501 128.07 33.7566 128.102 33.0112C128.061 31.564 128.565 30.1545 129.514 29.0662C129.991 28.5202 130.583 28.0878 131.247 27.8002C131.911 27.5125 132.63 27.3769 133.352 27.4032C134.061 27.3713 134.768 27.5005 135.421 27.781C136.074 28.0615 136.656 28.4862 137.123 29.0237C138.034 30.136 138.504 31.5472 138.445 32.9869V33.3329H130.172C130.133 34.2718 130.465 35.188 131.095 35.882C131.399 36.2048 131.767 36.4589 132.176 36.6274C132.585 36.7958 133.025 36.8749 133.467 36.8592C134.152 36.8765 134.829 36.6975 135.418 36.3429C136.006 35.9883 136.483 35.4727 136.791 34.8563L138.427 35.7545ZM136.435 31.8156C136.334 31.0752 135.977 30.3942 135.428 29.8916C134.874 29.3859 134.148 29.1142 133.4 29.1329C132.645 29.1224 131.91 29.3803 131.325 29.8612C130.727 30.3482 130.319 31.0316 130.172 31.7913L136.435 31.8156Z" fill="#020202"/>
<path d="M148.087 37.9393C147.176 38.4189 146.159 38.659 145.13 38.6372C144.394 38.6561 143.661 38.5225 142.978 38.2448C142.295 37.9671 141.677 37.5512 141.16 37.0228C140.136 35.951 139.563 34.522 139.563 33.0353C139.563 31.5485 140.136 30.1195 141.16 29.0477C141.658 28.5186 142.26 28.1 142.928 27.8189C143.597 27.5377 144.316 27.4002 145.04 27.4151C146.105 27.3675 147.164 27.6085 148.105 28.1131V30.3162C147.696 29.9494 147.219 29.6672 146.701 29.486C146.184 29.3048 145.635 29.2281 145.088 29.2602C144.616 29.2504 144.147 29.3422 143.713 29.5296C143.279 29.717 142.89 29.9955 142.572 30.3466C141.89 31.0601 141.515 32.0152 141.528 33.0049C141.506 33.9793 141.865 34.9234 142.53 35.6329C142.832 35.977 143.203 36.2519 143.619 36.4394C144.036 36.6268 144.487 36.7222 144.943 36.7193C146.067 36.7325 147.165 36.3814 148.075 35.7179L148.087 37.9393Z" fill="#020202"/>
<path d="M159.226 38.2666H157.192V32.0152C157.192 30.1378 156.607 29.1991 155.436 29.1991C155.04 29.1891 154.647 29.2598 154.278 29.4069C153.91 29.5539 153.576 29.7743 153.294 30.0548C152.934 30.4295 152.655 30.8756 152.475 31.3646C152.295 31.8536 152.219 32.3749 152.25 32.8953V38.2666H150.247V20.0283H152.262V29.1323C152.603 28.5746 153.083 28.1167 153.655 27.8046C154.227 27.4924 154.87 27.3371 155.521 27.354C157.999 27.354 159.238 28.7985 159.238 31.6875L159.226 38.2666Z" fill="#020202"/>
<path d="M170.872 38.2677H168.832V32.0163C168.894 31.2726 168.719 30.5285 168.331 29.892C168.117 29.6478 167.849 29.4578 167.548 29.3376C167.247 29.2174 166.922 29.1703 166.599 29.2001C166.211 29.1641 165.82 29.2231 165.46 29.3722C165.1 29.5212 164.78 29.7558 164.53 30.0559C164.035 30.9152 163.814 31.9066 163.896 32.8963V38.2677H161.881V27.7253H163.896V29.1819C164.237 28.6242 164.717 28.1663 165.289 27.8542C165.861 27.5421 166.504 27.3867 167.155 27.4036C169.637 27.4036 170.876 28.8481 170.872 31.7371V38.2677Z" fill="#020202"/>
<path d="M183.983 33.011C184 33.758 183.862 34.5003 183.578 35.1909C183.295 35.8815 182.872 36.5053 182.336 37.0229C181.268 38.0727 179.835 38.6605 178.341 38.6605C176.848 38.6605 175.415 38.0727 174.347 37.0229C173.559 36.2355 173.023 35.2297 172.807 34.1341C172.591 33.0385 172.704 31.903 173.133 30.8727C173.562 29.8425 174.287 28.9643 175.215 28.3505C176.142 27.7368 177.231 27.4153 178.341 27.4273C179.084 27.4098 179.822 27.5457 180.51 27.8265C181.198 28.1073 181.822 28.5271 182.342 29.0599C182.87 29.5703 183.288 30.1844 183.571 30.8641C183.853 31.5437 183.993 32.2745 183.983 33.011ZM181.944 33.011C181.952 32.5287 181.863 32.0496 181.681 31.603C181.5 31.1564 181.23 30.7517 180.888 30.4134C180.554 30.0732 180.157 29.803 179.719 29.6186C179.281 29.4342 178.81 29.3392 178.335 29.3392C177.86 29.3392 177.39 29.4342 176.952 29.6186C176.514 29.803 176.117 30.0732 175.783 30.4134C175.11 31.112 174.733 32.047 174.733 33.0201C174.733 33.9933 175.11 34.9283 175.783 35.6269C176.116 35.9679 176.513 36.2387 176.952 36.4236C177.39 36.6084 177.86 36.7036 178.335 36.7036C178.811 36.7036 179.281 36.6084 179.719 36.4236C180.158 36.2387 180.555 35.9679 180.888 35.6269C181.231 35.2856 181.501 34.8778 181.683 34.4281C181.864 33.9784 181.953 33.4963 181.944 33.011Z" fill="#020202"/>
<path d="M149.179 46.7337H142.029V51.5891H148.944V53.5677H142.029V60.1529H149.155V62.1315H139.863V44.749H149.179V46.7337Z" fill="#F9B70F"/>
<path d="M161.549 62.1313H159.171L155.678 57.8342L152.329 62.1313H149.873L154.592 56.4443L150.851 51.5889H153.216L155.678 54.9816L158.429 51.5889H160.843L156.981 56.4018L161.549 62.1313Z" fill="#F9B70F"/>
<path d="M173.207 56.8759C173.262 58.3475 172.769 59.7867 171.825 60.912C171.39 61.427 170.846 61.8377 170.234 62.1139C169.621 62.3901 168.954 62.5248 168.283 62.5083C167.54 62.4996 166.811 62.3019 166.164 61.9337C165.517 61.5654 164.974 61.0386 164.584 60.4022V68.3591H162.569V51.5896H164.584V53.4104C164.969 52.7665 165.511 52.2315 166.158 51.8557C166.805 51.4799 167.536 51.2756 168.283 51.2618C168.952 51.2471 169.616 51.3827 170.227 51.6589C170.838 51.935 171.379 52.3447 171.813 52.8581C172.761 53.9748 173.258 55.4084 173.207 56.8759ZM171.149 56.8759C171.185 55.8879 170.856 54.9214 170.226 54.163C169.926 53.8238 169.558 53.5529 169.146 53.3685C168.734 53.1842 168.288 53.0906 167.837 53.094C167.386 53.0975 166.941 53.1979 166.532 53.3885C166.123 53.5792 165.759 53.8556 165.465 54.1994C164.809 54.9325 164.455 55.8896 164.475 56.8759C164.436 57.8708 164.763 58.8453 165.393 59.6132C165.694 59.9756 166.073 60.2645 166.502 60.4579C166.93 60.6514 167.397 60.7444 167.866 60.73C168.318 60.7436 168.767 60.6527 169.178 60.4643C169.589 60.276 169.952 59.9952 170.238 59.6436C170.868 58.855 171.192 57.8627 171.149 56.8517V56.8759Z" fill="#F9B70F"/>
<path d="M184.671 59.6249C184.199 60.4918 183.497 61.2103 182.644 61.7006C181.791 62.2251 180.813 62.5063 179.814 62.5139C179.086 62.5438 178.36 62.4211 177.681 62.1536C177.003 61.8861 176.388 61.4797 175.874 60.9602C175.366 60.4152 174.971 59.7737 174.713 59.0734C174.455 58.373 174.339 57.6278 174.371 56.8816C174.33 55.4344 174.834 54.0252 175.783 52.9365C176.258 52.393 176.847 51.962 177.508 51.6745C178.168 51.387 178.883 51.25 179.603 51.2735C180.312 51.2408 181.02 51.3696 181.673 51.6501C182.326 51.9307 182.907 52.3559 183.374 52.894C184.284 54.0069 184.754 55.4178 184.695 56.8573V57.2093H176.423C176.382 58.1456 176.712 59.06 177.34 59.7524C177.643 60.0761 178.011 60.3308 178.42 60.4994C178.829 60.6679 179.27 60.7464 179.711 60.7295C180.397 60.7469 181.074 60.5678 181.663 60.2132C182.251 59.8586 182.728 59.3431 183.036 58.7267L184.671 59.6249ZM182.68 55.6799C182.581 54.9402 182.226 54.2591 181.678 53.7559C181.117 53.2613 180.391 52.9989 179.645 53.0215C178.891 53.0108 178.158 53.2688 177.575 53.7498C176.977 54.2361 176.568 54.9198 176.423 55.6799H182.68Z" fill="#F9B70F"/>
<path d="M192.902 51.5895L192.443 53.6348C192.054 53.3366 191.575 53.1823 191.085 53.1978C190.71 53.1901 190.339 53.2806 190.009 53.4604C189.679 53.6402 189.401 53.9032 189.203 54.2235C188.753 54.9501 188.533 55.7963 188.569 56.6513V62.1137H186.554V51.5895H188.503V53.3678C189.275 51.9658 190.211 51.2617 191.297 51.2617C191.846 51.2771 192.39 51.388 192.902 51.5895Z" fill="#F9B70F"/>
<path d="M198.387 53.4946H196.709V62.1313H194.67V53.4946H193.463V51.5889H194.67V46.7334H196.709V51.5889H198.387V53.4946Z" fill="#F9B70F"/>
<path d="M160.849 73.123C160.893 73.8384 160.776 74.5545 160.508 75.2184C160.239 75.8824 159.826 76.4772 159.298 76.9588C158.248 77.8611 156.78 78.3143 154.894 78.3183H153.572V85.6015H151.412V68.2129H154.26C158.653 68.2129 160.849 69.8496 160.849 73.123ZM158.834 73.1958C158.834 71.1727 157.327 70.1611 154.314 70.1611H153.56V76.3883H154.525C157.398 76.3842 158.834 75.3201 158.834 73.1958Z" fill="#020202"/>
<path d="M169.055 75.065L168.597 77.1104C168.21 76.8113 167.732 76.6568 167.245 76.6734C166.87 76.6657 166.499 76.7562 166.169 76.936C165.839 77.1158 165.561 77.3788 165.362 77.6991C164.911 78.4251 164.688 79.2713 164.723 80.1269V85.5892H162.708V75.065H164.657V76.8434C165.435 75.4353 166.364 74.7373 167.456 74.7373C168.004 74.7528 168.545 74.8637 169.055 75.065Z" fill="#020202"/>
<path d="M180.804 80.3459C180.817 81.0888 180.678 81.8266 180.394 82.5128C180.111 83.199 179.689 83.8189 179.156 84.3334C178.091 85.3876 176.656 85.9784 175.162 85.9784C173.667 85.9784 172.233 85.3876 171.167 84.3334C170.38 83.546 169.844 82.5402 169.627 81.4446C169.411 80.3491 169.525 79.2135 169.954 78.1833C170.383 77.153 171.107 76.2748 172.035 75.6611C172.963 75.0473 174.051 74.7258 175.162 74.7378C175.904 74.7204 176.642 74.8563 177.33 75.1371C178.018 75.4179 178.642 75.8377 179.162 76.3705C179.693 76.8837 180.113 77.5017 180.396 78.1858C180.678 78.8699 180.817 79.6053 180.804 80.3459ZM178.764 80.3459C178.772 79.8635 178.683 79.3844 178.502 78.9378C178.32 78.4913 178.05 78.0865 177.708 77.7482C177.375 77.408 176.977 77.1378 176.539 76.9534C176.101 76.769 175.631 76.6741 175.156 76.6741C174.681 76.6741 174.211 76.769 173.772 76.9534C173.334 77.1378 172.937 77.408 172.603 77.7482C171.93 78.4469 171.553 79.3818 171.553 80.355C171.553 81.3281 171.93 82.2631 172.603 82.9617C172.936 83.3027 173.334 83.5735 173.772 83.7584C174.21 83.9432 174.681 84.0385 175.156 84.0385C175.631 84.0385 176.101 83.9432 176.54 83.7584C176.978 83.5735 177.375 83.3027 177.708 82.9617C178.051 82.6205 178.322 82.2126 178.503 81.7629C178.685 81.3132 178.774 80.8311 178.764 80.3459Z" fill="#020202"/>
<path d="M185.112 70.2225C185.112 70.596 184.964 70.9541 184.702 71.2182C184.439 71.4822 184.083 71.6306 183.712 71.6306C183.341 71.6306 182.985 71.4822 182.722 71.2182C182.459 70.9541 182.312 70.596 182.312 70.2225C182.312 70.0396 182.351 69.8588 182.425 69.6916C182.498 69.5244 182.606 69.3745 182.74 69.2514C182.867 69.1194 183.018 69.0144 183.185 68.9427C183.353 68.871 183.533 68.834 183.715 68.834C183.897 68.834 184.077 68.871 184.245 68.9427C184.412 69.0144 184.563 69.1194 184.689 69.2514C184.823 69.3748 184.93 69.5249 185.003 69.6921C185.075 69.8593 185.112 70.04 185.112 70.2225ZM184.72 91.6958H182.704V75.0658H184.72V91.6958Z" fill="#020202"/>
<path d="M196.969 83.0949C196.495 83.9606 195.793 84.6787 194.941 85.1706C194.081 85.6972 193.094 85.9764 192.087 85.9778C191.358 86.008 190.632 85.8848 189.953 85.6163C189.275 85.3477 188.659 84.9395 188.147 84.418C187.639 83.8745 187.244 83.2342 186.986 82.5347C186.728 81.8352 186.612 81.0908 186.644 80.3455C186.603 78.8982 187.107 77.4887 188.056 76.4004C188.531 75.8569 189.12 75.4259 189.781 75.1383C190.441 74.8508 191.157 74.7139 191.876 74.7374C192.585 74.7047 193.293 74.8334 193.946 75.114C194.599 75.3946 195.18 75.8198 195.647 76.3579C196.558 77.4702 197.028 78.8815 196.969 80.3212V80.6732H188.72C188.679 81.6095 189.009 82.5239 189.637 83.2162C189.94 83.54 190.309 83.7947 190.718 83.9632C191.127 84.1318 191.567 84.2103 192.009 84.1934C192.694 84.2108 193.371 84.0317 193.96 83.6771C194.548 83.3225 195.025 82.807 195.333 82.1905L196.969 83.0949ZM194.977 79.1498C194.878 78.4101 194.524 77.7291 193.976 77.2258C193.419 76.722 192.691 76.4525 191.942 76.4732C191.188 76.4626 190.455 76.7206 189.873 77.2015C189.274 77.6878 188.866 78.3715 188.72 79.1316L194.977 79.1498Z" fill="#020202"/>
<path d="M206.629 85.2738C205.72 85.7548 204.705 85.997 203.678 85.9779C202.942 85.9861 202.211 85.8458 201.53 85.5653C200.848 85.2849 200.229 84.8699 199.709 84.3449C199.189 83.82 198.78 83.1956 198.504 82.5087C198.228 81.8218 198.092 81.0863 198.103 80.3455C198.087 79.61 198.218 78.8787 198.49 78.1955C198.762 77.5124 199.168 76.8915 199.684 76.3701C200.182 75.841 200.784 75.4224 201.452 75.1413C202.12 74.8601 202.84 74.7226 203.564 74.7375C204.629 74.6893 205.688 74.9304 206.629 75.4355V77.6386C206.22 77.2718 205.743 76.9897 205.225 76.8084C204.707 76.6272 204.159 76.5505 203.612 76.5826C203.142 76.5794 202.677 76.6774 202.249 76.87C201.82 77.0626 201.437 77.3454 201.126 77.6993C200.439 78.4123 200.061 79.3707 200.076 80.3637C200.055 81.3361 200.414 82.278 201.078 82.9857C201.38 83.3294 201.751 83.6042 202.168 83.7916C202.584 83.9789 203.035 84.0746 203.491 84.0721C204.615 84.0853 205.713 83.7341 206.623 83.0707L206.629 85.2738Z" fill="#020202"/>
<path d="M212.724 76.9651H211.04V85.5775H209.007V76.9651H207.8V75.0654H209.007V70.21H211.04V75.0654H212.724V76.9651Z" fill="#020202"/>
</svg>
