<svg width="30" height="30" viewBox="0 0 30 30" fill="none" xmlns="http://www.w3.org/2000/svg">
<path d="M14.4826 6.58259C16.7729 6.58259 18.931 7.5979 20.5126 9.18509V9.18978C20.5126 8.42759 21.0254 7.85103 21.7342 7.85103H21.9142C23.0326 7.85103 23.2567 8.90571 23.2567 9.23853L23.2614 21.0838C23.1835 21.8601 24.0629 22.2613 24.5514 21.7626C26.4498 19.8098 28.7251 11.7135 23.3692 7.02603C18.3742 2.65072 11.6701 3.37353 8.10573 5.82978C4.31729 8.44728 1.89573 14.2288 4.24792 19.6626C6.81667 25.5867 14.1601 27.3538 18.5307 25.5913C20.7432 24.6979 21.7632 27.6848 19.4635 28.6626C15.9976 30.141 6.33854 29.9901 1.82729 22.1779C-1.22052 16.9007 -1.05927 7.61759 7.0276 2.80822C13.2085 -0.873347 21.3639 0.146653 26.2801 5.27947C31.4176 10.6504 31.1204 20.6995 26.1048 24.606C23.8332 26.3826 20.4601 24.6548 20.4845 22.0663L20.4592 21.2226C18.8776 22.7892 16.7729 23.7079 14.4826 23.7079C9.95167 23.7079 5.9626 19.7179 5.9626 15.1917C5.9626 10.6167 9.95167 6.58447 14.4826 6.58447V6.58259ZM20.1817 14.8645C20.0101 11.5485 17.5492 9.55165 14.5754 9.55165H14.4629C11.0354 9.55165 9.13135 12.2517 9.13135 15.3126C9.13135 18.7448 11.431 20.9123 14.4489 20.9123C17.8173 20.9123 20.0289 18.4476 20.1901 15.532L20.1817 14.8645Z" fill="#020202"/>
</svg>
