<svg width="68" height="90" viewBox="0 0 68 90" fill="none" xmlns="http://www.w3.org/2000/svg">
<path fill-rule="evenodd" clip-rule="evenodd" d="M34 90C34 90 67.75 58.0163 67.75 33.75C67.75 24.7989 64.1942 16.2145 57.8649 9.88515C51.5355 3.55579 42.9511 0 34 0C25.0489 0 16.4645 3.55579 10.1351 9.88515C3.80579 16.2145 0.25 24.7989 0.25 33.75C0.25 58.0163 34 90 34 90ZM34 50.625C38.4755 50.625 42.7678 48.8471 45.9324 45.6824C49.0971 42.5178 50.875 38.2255 50.875 33.75C50.875 29.2745 49.0971 24.9823 45.9324 21.8176C42.7678 18.6529 38.4755 16.875 34 16.875C29.5245 16.875 25.2323 18.6529 22.0676 21.8176C18.9029 24.9823 17.125 29.2745 17.125 33.75C17.125 38.2255 18.9029 42.5178 22.0676 45.6824C25.2323 48.8471 29.5245 50.625 34 50.625Z" fill="#F9B70F"/>
</svg>
