<svg width="24" height="24" viewBox="0 0 24 24" fill="none" xmlns="http://www.w3.org/2000/svg">
<path d="M20.4 3.48756C19.2985 2.378 17.9875 1.49833 16.5432 0.89964C15.0988 0.300952 13.55 -0.00482786 11.9865 5.76301e-05C5.433 5.76301e-05 0.099 5.33406 0.099 11.8921C0.099 13.9876 0.648 16.0366 1.6875 17.8366L0 24.0001L6.3045 22.3456C8.04744 23.295 10.0003 23.7931 11.985 23.7946H11.9895C18.543 23.7946 23.8815 18.4606 23.8815 11.9026C23.8855 10.3396 23.5797 8.79137 22.9819 7.34728C22.3841 5.90318 21.506 4.59186 20.3985 3.48906L20.4 3.48756ZM11.9895 21.7876C10.2182 21.7879 8.47949 21.3117 6.9555 20.4091L6.594 20.1931L2.853 21.1726L3.852 17.5261L3.618 17.1511C2.62464 15.5772 2.09969 13.7532 2.1045 11.8921C2.10768 9.27019 3.15093 6.75669 5.00529 4.90317C6.85965 3.04965 9.37363 2.00754 11.9955 2.00556C14.634 2.00556 17.1195 3.03756 18.984 4.90206C19.9041 5.81884 20.6334 6.90886 21.1298 8.10915C21.6262 9.30943 21.8798 10.5962 21.876 11.8951C21.8715 17.3506 17.4375 21.7861 11.9895 21.7861V21.7876ZM17.409 14.3821C17.1135 14.2321 15.651 13.5151 15.3795 13.4161C15.108 13.3171 14.91 13.2661 14.709 13.5661C14.5125 13.8616 13.941 14.5321 13.767 14.7331C13.593 14.9296 13.4205 14.9581 13.125 14.8081C12.8295 14.6581 11.868 14.3446 10.734 13.3321C9.852 12.5446 9.2535 11.5696 9.0795 11.2741C8.9055 10.9786 9.06 10.8151 9.2115 10.6696C9.348 10.5376 9.507 10.3231 9.657 10.1491C9.807 9.97506 9.8535 9.85356 9.9525 9.65256C10.0515 9.45606 10.0035 9.28206 9.9285 9.13206C9.8535 8.98206 9.258 7.51956 9.015 6.92406C8.7765 6.34206 8.5275 6.42306 8.3445 6.41256C8.1705 6.40356 7.974 6.40356 7.7775 6.40356C7.581 6.40356 7.257 6.47856 6.9855 6.77406C6.714 7.06956 5.9445 7.79106 5.9445 9.25356C5.9445 10.7161 7.008 12.1276 7.158 12.3286C7.308 12.5251 9.2535 15.5296 12.234 16.8151C12.942 17.1196 13.4955 17.3026 13.926 17.4436C14.6385 17.6686 15.285 17.6356 15.7965 17.5606C16.368 17.4766 17.5545 16.8436 17.8035 16.1491C18.0525 15.4546 18.0525 14.8606 17.9775 14.7376C17.907 14.6056 17.7105 14.5321 17.4105 14.3806L17.409 14.3821Z" fill="#F9B70F"/>
</svg>
