<svg width="24" height="30" viewBox="0 0 24 30" fill="none" xmlns="http://www.w3.org/2000/svg">
<path fill-rule="evenodd" clip-rule="evenodd" d="M12 30C12 30 23.25 19.3388 23.25 11.25C23.25 8.26631 22.0647 5.40483 19.955 3.29505C17.8452 1.18526 14.9837 0 12 0C9.01631 0 6.15483 1.18526 4.04505 3.29505C1.93526 5.40483 0.75 8.26631 0.75 11.25C0.75 19.3388 12 30 12 30ZM12 16.875C13.4918 16.875 14.9226 16.2824 15.9775 15.2275C17.0324 14.1726 17.625 12.7418 17.625 11.25C17.625 9.75816 17.0324 8.32742 15.9775 7.27252C14.9226 6.21763 13.4918 5.625 12 5.625C10.5082 5.625 9.07742 6.21763 8.02252 7.27252C6.96763 8.32742 6.375 9.75816 6.375 11.25C6.375 12.7418 6.96763 14.1726 8.02252 15.2275C9.07742 16.2824 10.5082 16.875 12 16.875Z" fill="#020202"/>
</svg>
