<svg width="41" height="30" viewBox="0 0 41 30" fill="none" xmlns="http://www.w3.org/2000/svg">
<path d="M40.8788 14.8568C40.8788 14.7586 40.8788 14.6469 40.8744 14.5173C40.8699 14.1554 40.861 13.7488 40.852 13.3154C40.8163 12.0689 40.7537 10.8268 40.6554 9.65624C40.5214 8.04334 40.3248 6.69851 40.0568 5.68877C39.7739 4.63502 39.2193 3.67397 38.4486 2.90169C37.6779 2.12941 36.718 1.57294 35.6648 1.28791C34.4004 0.948351 31.9252 0.738361 28.4403 0.608792C26.7827 0.546242 25.0089 0.506031 23.2352 0.483692C22.6142 0.474756 22.0378 0.470288 21.5195 0.46582H20.206C19.6877 0.470288 19.1114 0.474756 18.4903 0.483692C16.7166 0.506031 14.9428 0.546242 13.2852 0.608792C9.8003 0.742828 7.32063 0.952818 6.06069 1.28791C5.00717 1.57224 4.04688 2.12847 3.27606 2.90086C2.50524 3.67325 1.95096 4.63467 1.66877 5.68877C1.39623 6.69851 1.20411 8.04334 1.07007 9.65624C0.97178 10.8268 0.90923 12.0689 0.873487 13.3154C0.860083 13.7488 0.855615 14.1554 0.851147 14.5173C0.851147 14.6469 0.84668 14.7586 0.84668 14.8568V15.107C0.84668 15.2053 0.84668 15.317 0.851147 15.4466C0.855615 15.8085 0.864551 16.2151 0.873487 16.6485C0.90923 17.895 0.97178 19.1371 1.07007 20.3077C1.20411 21.9206 1.4007 23.2654 1.66877 24.2751C2.24066 26.4152 3.92058 28.1041 6.06069 28.676C7.32063 29.0155 9.8003 29.2255 13.2852 29.3551C14.9428 29.4177 16.7166 29.4579 18.4903 29.4802C19.1114 29.4891 19.6877 29.4936 20.206 29.4981H21.5195C22.0378 29.4936 22.6142 29.4891 23.2352 29.4802C25.0089 29.4579 26.7827 29.4177 28.4403 29.3551C31.9252 29.2211 34.4049 29.0111 35.6648 28.676C37.8049 28.1041 39.4849 26.4197 40.0568 24.2751C40.3293 23.2654 40.5214 21.9206 40.6554 20.3077C40.7537 19.1371 40.8163 17.895 40.852 16.6485C40.8654 16.2151 40.8699 15.8085 40.8744 15.4466C40.8744 15.317 40.8788 15.2053 40.8788 15.107V14.8568ZM37.662 15.0892C37.662 15.183 37.662 15.2858 37.6575 15.4064C37.653 15.7549 37.6441 16.1391 37.6352 16.5546C37.6039 17.7431 37.5413 18.9315 37.4475 20.0351C37.3269 21.4738 37.1571 22.6533 36.9471 23.4441C36.6701 24.4762 35.857 25.2938 34.8293 25.5663C33.8911 25.8165 31.5276 26.0176 28.3152 26.1382C26.6889 26.2008 24.9375 26.241 23.1905 26.2633C22.5784 26.2723 22.011 26.2767 21.5017 26.2767H20.2239L18.535 26.2633C16.7881 26.241 15.0411 26.2008 13.4103 26.1382C10.1979 26.0131 7.82997 25.8165 6.89618 25.5663C5.86857 25.2893 5.05542 24.4762 4.77841 23.4441C4.56842 22.6533 4.39864 21.4738 4.27801 20.0351C4.18418 18.9315 4.1261 17.7431 4.09036 16.5546C4.07695 16.1391 4.07249 15.7504 4.06802 15.4064C4.06802 15.2858 4.06355 15.1785 4.06355 15.0892V14.8747C4.06355 14.7809 4.06355 14.6781 4.06802 14.5575C4.07249 14.209 4.08142 13.8248 4.09036 13.4093C4.12163 12.2208 4.18418 11.0323 4.27801 9.92878C4.39864 8.49012 4.56842 7.31061 4.77841 6.51979C5.05542 5.48771 5.86857 4.67009 6.89618 4.39755C7.83444 4.14735 10.1979 3.94629 13.4103 3.82566C15.0367 3.76311 16.7881 3.7229 18.535 3.70056C19.1471 3.69163 19.7145 3.68716 20.2239 3.68716H21.5017L23.1905 3.70056C24.9375 3.7229 26.6844 3.76311 28.3152 3.82566C31.5276 3.95076 33.8956 4.14735 34.8293 4.39755C35.857 4.67456 36.6701 5.48771 36.9471 6.51979C37.1571 7.31061 37.3269 8.49012 37.4475 9.92878C37.5413 11.0323 37.5994 12.2208 37.6352 13.4093C37.6486 13.8248 37.653 14.2135 37.6575 14.5575C37.6575 14.6781 37.662 14.7854 37.662 14.8747V15.0892ZM16.8864 20.9689L27.2518 14.9373L16.8864 8.99499V20.9689Z" fill="#020202"/>
</svg>
